<svg width="379" height="89" viewBox="0 0 379 89" fill="none" xmlns="http://www.w3.org/2000/svg">
<g clip-path="url(#clip0_60_430)">
<path d="M254.705 77.3631C251.142 77.3631 248.099 76.5691 245.576 74.9809C243.054 73.3927 241.117 71.1954 239.767 68.389C238.417 65.5825 237.743 62.3626 237.743 58.7295C237.743 55.0311 238.429 51.7894 239.802 49.0048C241.172 46.2201 243.12 44.0553 245.642 42.5107C248.188 40.9443 251.209 40.1611 254.705 40.1611C258.29 40.1611 261.343 40.9552 263.866 42.5434C266.411 44.1098 268.348 46.2962 269.675 49.1027C271.025 51.8873 271.701 55.0964 271.701 58.7295C271.701 62.4279 271.025 65.6804 269.675 68.4869C268.325 71.2715 266.378 73.4471 263.833 75.0135C261.288 76.5799 258.245 77.3631 254.705 77.3631ZM254.705 72.7618C258.689 72.7618 261.653 71.4673 263.601 68.8785C265.548 66.2678 266.522 62.8848 266.522 58.7295C266.522 54.4654 265.538 51.0715 263.568 48.5479C261.62 46.0243 258.666 44.7624 254.705 44.7624C252.027 44.7624 249.814 45.3607 248.066 46.5573C246.34 47.7321 245.046 49.3746 244.182 51.4849C243.341 53.5734 242.921 55.9883 242.921 58.7295C242.921 62.9718 243.917 66.3765 245.909 68.9437C247.9 71.4891 250.832 72.7618 254.705 72.7618Z" fill="#0075FF"/>
<mask id="mask0_60_430" style="mask-type:luminance" maskUnits="userSpaceOnUse" x="200" y="26" width="178" height="53">
<path d="M377.737 26.9299H200.97V78.8466H377.737V26.9299Z" fill="white"/>
<path d="M254.706 77.3634C251.142 77.3634 248.099 76.5694 245.577 74.9811C243.054 73.3929 241.117 71.1957 239.767 68.3892C238.418 65.5827 237.743 62.3629 237.743 58.7297C237.743 55.0313 238.429 51.7897 239.802 49.005C241.172 46.2203 243.12 44.0556 245.642 42.511C248.188 40.9446 251.209 40.1614 254.706 40.1614C258.29 40.1614 261.343 40.9554 263.866 42.5436C266.411 44.11 268.348 46.2964 269.675 49.1029C271.025 51.8876 271.701 55.0966 271.701 58.7297C271.701 62.4281 271.025 65.6806 269.675 68.4871C268.326 71.2718 266.378 73.4474 263.833 75.0138C261.288 76.5802 258.245 77.3634 254.706 77.3634ZM254.706 72.7621C258.689 72.7621 261.653 71.4676 263.601 68.8787C265.548 66.268 266.522 62.885 266.522 58.7297C266.522 54.4656 265.538 51.0717 263.568 48.5481C261.62 46.0246 258.666 44.7627 254.706 44.7627C252.027 44.7627 249.814 45.3609 248.066 46.5575C246.341 47.7323 245.046 49.3748 244.182 51.4851C243.342 53.5737 242.921 55.9885 242.921 58.7297C242.921 62.9721 243.917 66.3768 245.909 68.944C247.9 71.4894 250.832 72.7621 254.706 72.7621Z" fill="black"/>
<path d="M278.957 76.3843C278.627 76.3843 278.358 76.1187 278.358 75.791V29.0067C278.358 28.679 278.627 28.4133 278.957 28.4133H282.639C282.97 28.4133 283.238 28.679 283.238 29.0067V75.791C283.238 76.1187 282.97 76.3843 282.639 76.3843H278.957Z" fill="black"/>
<path d="M302.118 77.3634C299.419 77.3634 297.151 76.8847 295.314 75.9275C293.5 74.9703 292.138 73.6976 291.23 72.1094C290.324 70.5212 289.87 68.7916 289.87 66.9207C289.87 65.0062 290.257 63.3745 291.031 62.0257C291.828 60.6551 292.902 59.5347 294.252 58.6645C295.624 57.7942 297.206 57.1307 298.998 56.6738C300.813 56.2388 302.816 55.858 305.006 55.5317C307.219 55.1835 309.377 54.8898 311.479 54.6506C312.983 54.4658 314.354 54.2863 315.593 54.1124C315.915 54.067 316.071 54.4956 315.793 54.6636C315.593 54.7851 315.335 54.6384 315.334 54.4054C315.322 51.1962 314.634 48.7978 313.271 47.2102C311.833 45.535 309.332 44.6974 305.77 44.6974C303.313 44.6974 301.233 45.2413 299.529 46.3291C297.986 47.3272 296.861 48.8567 296.157 50.9173C296.051 51.2282 295.72 51.4105 295.401 51.3187L291.788 50.2753C291.477 50.1857 291.293 49.8677 291.385 49.5607C292.247 46.6722 293.846 44.4092 296.177 42.772C298.655 41.0316 301.875 40.1614 305.836 40.1614C309.111 40.1614 311.888 40.7706 314.168 41.9888C316.469 43.1854 318.096 44.9258 319.047 47.2102C319.489 48.2326 319.777 49.3748 319.91 50.6367C320.043 51.8985 320.109 53.1821 320.109 54.4874V75.791C320.109 76.1187 319.841 76.3844 319.51 76.3844H316.36C316.029 76.3844 315.76 76.1187 315.76 75.791V68.3588C315.76 67.9699 316.16 67.7063 316.523 67.8562C316.8 67.9709 316.933 68.2849 316.815 68.5576C315.594 71.3396 313.771 73.4808 311.346 74.9811C308.78 76.5694 305.703 77.3634 302.118 77.3634ZM302.683 73.2189C304.961 73.2189 306.954 72.8165 308.657 72.0115C310.362 71.2065 311.734 70.1079 312.773 68.7155C313.813 67.3015 314.489 65.7133 314.799 63.9511C315.064 62.8197 315.208 61.5797 315.23 60.2309C315.245 59.2716 315.256 58.4829 315.26 57.8647C315.263 57.5443 315.605 57.3376 315.894 57.484C316.27 57.676 316.172 58.2325 315.751 58.2852C314.481 58.4444 313.134 58.6034 311.711 58.7624C309.786 58.98 307.882 59.2301 306.002 59.5129C304.143 59.7958 302.461 60.133 300.957 60.5246C299.938 60.8074 298.954 61.2099 298.003 61.732C297.05 62.2323 296.265 62.9068 295.645 63.7553C295.049 64.6037 294.749 65.6588 294.749 66.9207C294.749 67.9432 295.004 68.9332 295.513 69.8903C296.043 70.8475 296.885 71.6417 298.036 72.2726C299.209 72.9034 300.758 73.2189 302.683 73.2189Z" fill="black"/>
<path d="M328.022 76.3843C327.691 76.3843 327.423 76.1187 327.423 75.791V41.7337C327.423 41.406 327.691 41.1403 328.022 41.1403H331.205C331.536 41.1403 331.804 41.406 331.804 41.7337V48.448C331.804 48.8305 331.314 48.9956 331.079 48.6926C330.994 48.5825 330.971 48.4361 331.022 48.3071C331.41 47.3435 331.903 46.4557 332.501 45.6437C333.144 44.7518 333.84 44.0229 334.592 43.4573C335.522 42.6523 336.607 42.0432 337.846 41.6298C339.085 41.1948 340.336 40.9445 341.597 40.8793C342.677 40.8048 343.676 40.8579 344.594 41.0387C344.863 41.0917 345.048 41.3305 345.048 41.6021V44.8821C345.048 45.2686 344.681 45.5516 344.296 45.4858C343.2 45.2975 342.024 45.2741 340.767 45.4153C339.218 45.5893 337.79 46.1985 336.484 47.2428C335.29 48.1565 334.393 49.2552 333.797 50.5387C333.199 51.8006 332.801 53.1494 332.601 54.5853C332.402 55.9993 332.302 57.4026 332.302 58.795V75.791C332.302 76.1187 332.034 76.3843 331.702 76.3843H328.022Z" fill="black"/>
<path d="M362.099 77.3307C357.894 77.3307 354.43 76.4388 351.709 74.6548C349.18 72.984 347.564 70.7023 346.859 67.8101C346.782 67.4854 347.005 67.1695 347.337 67.1149L351.169 66.4868C351.475 66.4368 351.767 66.6261 351.864 66.9167C352.456 68.6779 353.611 70.1042 355.326 71.1957C357.23 72.3705 359.576 72.9579 362.364 72.9579C365.086 72.9579 367.233 72.4031 368.804 71.2936C370.374 70.1622 371.16 68.6285 371.16 66.6923C371.16 65.6045 370.906 64.7234 370.396 64.049C369.91 63.3528 368.903 62.711 367.376 62.1236C365.848 61.5362 363.57 60.8401 360.538 60.0351C357.286 59.1648 354.741 58.2947 352.904 57.4244C351.067 56.5541 349.761 55.5535 348.987 54.4221C348.212 53.2691 347.826 51.8659 347.826 50.2124C347.826 48.211 348.401 46.4596 349.551 44.9585C350.702 43.4355 352.294 42.2607 354.332 41.4341C356.367 40.5856 358.734 40.1614 361.434 40.1614C364.135 40.1614 366.546 40.5964 368.671 41.4667C370.817 42.3152 372.543 43.5118 373.849 45.0564C375.036 46.4601 375.783 48.0705 376.092 49.8874C376.146 50.1972 375.929 50.484 375.617 50.5392L371.794 51.2156C371.464 51.2741 371.153 51.0519 371.075 50.7286C370.65 48.9405 369.637 47.5065 368.04 46.427C366.292 45.2087 364.067 44.5777 361.368 44.5342C358.823 44.469 356.754 44.9476 355.16 45.9701C353.568 46.9709 352.771 48.3089 352.771 49.984C352.771 50.9195 353.058 51.7244 353.633 52.3989C354.209 53.0515 355.25 53.6716 356.754 54.259C358.28 54.8464 360.449 55.4882 363.26 56.1843C366.557 57.011 369.147 57.8813 371.027 58.795C372.909 59.7087 374.246 60.7856 375.043 62.0257C375.84 63.2658 376.239 64.7995 376.239 66.627C376.239 69.9556 374.977 72.5771 372.455 74.4916C369.954 76.3844 366.502 77.3307 362.099 77.3307Z" fill="black"/>
<path d="M202.979 76.3846C202.697 76.3846 202.468 76.1599 202.468 75.8826V29.8947C202.468 29.6175 202.697 29.3926 202.979 29.3926H220.924C221.388 29.3926 221.908 29.4144 222.483 29.4578C223.081 29.4797 223.678 29.5449 224.276 29.6536C226.776 30.0236 228.89 30.8829 230.616 32.2317C232.364 33.5588 233.681 35.2339 234.566 37.2572C235.474 39.2805 235.928 41.5213 235.928 43.9797C235.928 46.4164 235.474 48.6462 234.566 50.6695C233.658 52.6928 232.331 54.3789 230.583 55.7277C228.857 57.0548 226.754 57.9033 224.276 58.2731C223.678 58.3602 223.081 58.4254 222.483 58.4689C221.908 58.5125 221.388 58.5341 220.924 58.5341H207.858C207.576 58.5341 207.347 58.759 207.347 59.0363V75.8826C207.347 76.1599 207.119 76.3846 206.836 76.3846H202.979ZM207.347 53.4635C207.347 53.7408 207.576 53.9655 207.858 53.9655H220.79C221.189 53.9655 221.653 53.9438 222.185 53.9002C222.717 53.8568 223.237 53.7807 223.744 53.6718C225.383 53.3238 226.721 52.6601 227.762 51.6811C228.824 50.7021 229.609 49.5383 230.118 48.1894C230.649 46.8406 230.915 45.4374 230.915 43.9797C230.915 42.5222 230.649 41.1189 230.118 39.77C229.609 38.3994 228.824 37.2246 227.762 36.2456C226.721 35.2666 225.383 34.6031 223.744 34.2549C223.237 34.1462 222.717 34.081 222.185 34.0591C221.653 34.0157 221.189 33.9939 220.79 33.9939H207.858C207.576 33.9939 207.347 34.2188 207.347 34.496V53.4635Z" fill="black"/>
</mask>
<g mask="url(#mask0_60_430)">
<path d="M254.706 77.3634C251.142 77.3634 248.099 76.5694 245.577 74.9811C243.054 73.3929 241.117 71.1957 239.767 68.3892C238.418 65.5827 237.743 62.3629 237.743 58.7297C237.743 55.0313 238.429 51.7897 239.802 49.005C241.172 46.2203 243.12 44.0556 245.642 42.511C248.188 40.9446 251.209 40.1614 254.706 40.1614C258.29 40.1614 261.343 40.9554 263.866 42.5436C266.411 44.11 268.348 46.2964 269.675 49.1029C271.025 51.8876 271.701 55.0966 271.701 58.7297C271.701 62.4281 271.025 65.6806 269.675 68.4871C268.326 71.2718 266.378 73.4474 263.833 75.0138C261.288 76.5802 258.245 77.3634 254.706 77.3634ZM254.706 72.7621C258.689 72.7621 261.653 71.4676 263.601 68.8787C265.548 66.268 266.522 62.885 266.522 58.7297C266.522 54.4656 265.538 51.0717 263.568 48.5481C261.62 46.0246 258.666 44.7627 254.706 44.7627C252.027 44.7627 249.814 45.3609 248.066 46.5575C246.341 47.7323 245.046 49.3748 244.182 51.4851C243.342 53.5737 242.921 55.9885 242.921 58.7297C242.921 62.9721 243.917 66.3768 245.909 68.944C247.9 71.4894 250.832 72.7621 254.706 72.7621Z" stroke="#0075FF" stroke-width="0.8" stroke-linejoin="round"/>
</g>
<path d="M278.957 76.3843C278.627 76.3843 278.358 76.1187 278.358 75.791V29.0067C278.358 28.679 278.627 28.4133 278.957 28.4133H282.639C282.97 28.4133 283.238 28.679 283.238 29.0067V75.791C283.238 76.1187 282.97 76.3843 282.639 76.3843H278.957Z" fill="#0075FF"/>
<mask id="mask1_60_430" style="mask-type:luminance" maskUnits="userSpaceOnUse" x="200" y="26" width="178" height="53">
<path d="M377.737 26.9299H200.97V78.8466H377.737V26.9299Z" fill="white"/>
<path d="M254.706 77.3634C251.142 77.3634 248.099 76.5694 245.577 74.9811C243.054 73.3929 241.117 71.1957 239.767 68.3892C238.418 65.5827 237.743 62.3629 237.743 58.7297C237.743 55.0313 238.429 51.7897 239.802 49.005C241.172 46.2203 243.12 44.0556 245.642 42.511C248.188 40.9446 251.209 40.1614 254.706 40.1614C258.29 40.1614 261.343 40.9554 263.866 42.5436C266.411 44.11 268.348 46.2964 269.675 49.1029C271.025 51.8876 271.701 55.0966 271.701 58.7297C271.701 62.4281 271.025 65.6806 269.675 68.4871C268.326 71.2718 266.378 73.4474 263.833 75.0138C261.288 76.5802 258.245 77.3634 254.706 77.3634ZM254.706 72.7621C258.689 72.7621 261.653 71.4676 263.601 68.8787C265.548 66.268 266.522 62.885 266.522 58.7297C266.522 54.4656 265.538 51.0717 263.568 48.5481C261.62 46.0246 258.666 44.7627 254.706 44.7627C252.027 44.7627 249.814 45.3609 248.066 46.5575C246.341 47.7323 245.046 49.3748 244.182 51.4851C243.342 53.5737 242.921 55.9885 242.921 58.7297C242.921 62.9721 243.917 66.3768 245.909 68.944C247.9 71.4894 250.832 72.7621 254.706 72.7621Z" fill="black"/>
<path d="M278.957 76.3843C278.627 76.3843 278.358 76.1187 278.358 75.791V29.0067C278.358 28.679 278.627 28.4133 278.957 28.4133H282.639C282.97 28.4133 283.238 28.679 283.238 29.0067V75.791C283.238 76.1187 282.97 76.3843 282.639 76.3843H278.957Z" fill="black"/>
<path d="M302.118 77.3634C299.419 77.3634 297.151 76.8847 295.314 75.9275C293.5 74.9703 292.138 73.6976 291.23 72.1094C290.324 70.5212 289.87 68.7916 289.87 66.9207C289.87 65.0062 290.257 63.3745 291.031 62.0257C291.828 60.6551 292.902 59.5347 294.252 58.6645C295.624 57.7942 297.206 57.1307 298.998 56.6738C300.813 56.2388 302.816 55.858 305.006 55.5317C307.219 55.1835 309.377 54.8898 311.479 54.6506C312.983 54.4658 314.354 54.2863 315.593 54.1124C315.915 54.067 316.071 54.4956 315.793 54.6636C315.593 54.7851 315.335 54.6384 315.334 54.4054C315.322 51.1962 314.634 48.7978 313.271 47.2102C311.833 45.535 309.332 44.6974 305.77 44.6974C303.313 44.6974 301.233 45.2413 299.529 46.3291C297.986 47.3272 296.861 48.8567 296.157 50.9173C296.051 51.2282 295.72 51.4105 295.401 51.3187L291.788 50.2753C291.477 50.1857 291.293 49.8677 291.385 49.5607C292.247 46.6722 293.846 44.4092 296.177 42.772C298.655 41.0316 301.875 40.1614 305.836 40.1614C309.111 40.1614 311.888 40.7706 314.168 41.9888C316.469 43.1854 318.096 44.9258 319.047 47.2102C319.489 48.2326 319.777 49.3748 319.91 50.6367C320.043 51.8985 320.109 53.1821 320.109 54.4874V75.791C320.109 76.1187 319.841 76.3844 319.51 76.3844H316.36C316.029 76.3844 315.76 76.1187 315.76 75.791V68.3588C315.76 67.9699 316.16 67.7063 316.523 67.8562C316.8 67.9709 316.933 68.2849 316.815 68.5576C315.594 71.3396 313.771 73.4808 311.346 74.9811C308.78 76.5694 305.703 77.3634 302.118 77.3634ZM302.683 73.2189C304.961 73.2189 306.954 72.8165 308.657 72.0115C310.362 71.2065 311.734 70.1079 312.773 68.7155C313.813 67.3015 314.489 65.7133 314.799 63.9511C315.064 62.8197 315.208 61.5797 315.23 60.2309C315.245 59.2716 315.256 58.4829 315.26 57.8647C315.263 57.5443 315.605 57.3376 315.894 57.484C316.27 57.676 316.172 58.2325 315.751 58.2852C314.481 58.4444 313.134 58.6034 311.711 58.7624C309.786 58.98 307.882 59.2301 306.002 59.5129C304.143 59.7958 302.461 60.133 300.957 60.5246C299.938 60.8074 298.954 61.2099 298.003 61.732C297.05 62.2323 296.265 62.9068 295.645 63.7553C295.049 64.6037 294.749 65.6588 294.749 66.9207C294.749 67.9432 295.004 68.9332 295.513 69.8903C296.043 70.8475 296.885 71.6417 298.036 72.2726C299.209 72.9034 300.758 73.2189 302.683 73.2189Z" fill="black"/>
<path d="M328.022 76.3843C327.691 76.3843 327.423 76.1187 327.423 75.791V41.7337C327.423 41.406 327.691 41.1403 328.022 41.1403H331.205C331.536 41.1403 331.804 41.406 331.804 41.7337V48.448C331.804 48.8305 331.314 48.9956 331.079 48.6926C330.994 48.5825 330.971 48.4361 331.022 48.3071C331.41 47.3435 331.903 46.4557 332.501 45.6437C333.144 44.7518 333.84 44.0229 334.592 43.4573C335.522 42.6523 336.607 42.0432 337.846 41.6298C339.085 41.1948 340.336 40.9445 341.597 40.8793C342.677 40.8048 343.676 40.8579 344.594 41.0387C344.863 41.0917 345.048 41.3305 345.048 41.6021V44.8821C345.048 45.2686 344.681 45.5516 344.296 45.4858C343.2 45.2975 342.024 45.2741 340.767 45.4153C339.218 45.5893 337.79 46.1985 336.484 47.2428C335.29 48.1565 334.393 49.2552 333.797 50.5387C333.199 51.8006 332.801 53.1494 332.601 54.5853C332.402 55.9993 332.302 57.4026 332.302 58.795V75.791C332.302 76.1187 332.034 76.3843 331.702 76.3843H328.022Z" fill="black"/>
<path d="M362.099 77.3307C357.894 77.3307 354.43 76.4388 351.709 74.6548C349.18 72.984 347.564 70.7023 346.859 67.8101C346.782 67.4854 347.005 67.1695 347.337 67.1149L351.169 66.4868C351.475 66.4368 351.767 66.6261 351.864 66.9167C352.456 68.6779 353.611 70.1042 355.326 71.1957C357.23 72.3705 359.576 72.9579 362.364 72.9579C365.086 72.9579 367.233 72.4031 368.804 71.2936C370.374 70.1622 371.16 68.6285 371.16 66.6923C371.16 65.6045 370.906 64.7234 370.396 64.049C369.91 63.3528 368.903 62.711 367.376 62.1236C365.848 61.5362 363.57 60.8401 360.538 60.0351C357.286 59.1648 354.741 58.2947 352.904 57.4244C351.067 56.5541 349.761 55.5535 348.987 54.4221C348.212 53.2691 347.826 51.8659 347.826 50.2124C347.826 48.211 348.401 46.4596 349.551 44.9585C350.702 43.4355 352.294 42.2607 354.332 41.4341C356.367 40.5856 358.734 40.1614 361.434 40.1614C364.135 40.1614 366.546 40.5964 368.671 41.4667C370.817 42.3152 372.543 43.5118 373.849 45.0564C375.036 46.4601 375.783 48.0705 376.092 49.8874C376.146 50.1972 375.929 50.484 375.617 50.5392L371.794 51.2156C371.464 51.2741 371.153 51.0519 371.075 50.7286C370.65 48.9405 369.637 47.5065 368.04 46.427C366.292 45.2087 364.067 44.5777 361.368 44.5342C358.823 44.469 356.754 44.9476 355.16 45.9701C353.568 46.9709 352.771 48.3089 352.771 49.984C352.771 50.9195 353.058 51.7244 353.633 52.3989C354.209 53.0515 355.25 53.6716 356.754 54.259C358.28 54.8464 360.449 55.4882 363.26 56.1843C366.557 57.011 369.147 57.8813 371.027 58.795C372.909 59.7087 374.246 60.7856 375.043 62.0257C375.84 63.2658 376.239 64.7995 376.239 66.627C376.239 69.9556 374.977 72.5771 372.455 74.4916C369.954 76.3844 366.502 77.3307 362.099 77.3307Z" fill="black"/>
<path d="M202.979 76.3846C202.697 76.3846 202.468 76.1599 202.468 75.8826V29.8947C202.468 29.6175 202.697 29.3926 202.979 29.3926H220.924C221.388 29.3926 221.908 29.4144 222.483 29.4578C223.081 29.4797 223.678 29.5449 224.276 29.6536C226.776 30.0236 228.89 30.8829 230.616 32.2317C232.364 33.5588 233.681 35.2339 234.566 37.2572C235.474 39.2805 235.928 41.5213 235.928 43.9797C235.928 46.4164 235.474 48.6462 234.566 50.6695C233.658 52.6928 232.331 54.3789 230.583 55.7277C228.857 57.0548 226.754 57.9033 224.276 58.2731C223.678 58.3602 223.081 58.4254 222.483 58.4689C221.908 58.5125 221.388 58.5341 220.924 58.5341H207.858C207.576 58.5341 207.347 58.759 207.347 59.0363V75.8826C207.347 76.1599 207.119 76.3846 206.836 76.3846H202.979ZM207.347 53.4635C207.347 53.7408 207.576 53.9655 207.858 53.9655H220.79C221.189 53.9655 221.653 53.9438 222.185 53.9002C222.717 53.8568 223.237 53.7807 223.744 53.6718C225.383 53.3238 226.721 52.6601 227.762 51.6811C228.824 50.7021 229.609 49.5383 230.118 48.1894C230.649 46.8406 230.915 45.4374 230.915 43.9797C230.915 42.5222 230.649 41.1189 230.118 39.77C229.609 38.3994 228.824 37.2246 227.762 36.2456C226.721 35.2666 225.383 34.6031 223.744 34.2549C223.237 34.1462 222.717 34.081 222.185 34.0591C221.653 34.0157 221.189 33.9939 220.79 33.9939H207.858C207.576 33.9939 207.347 34.2188 207.347 34.496V53.4635Z" fill="black"/>
</mask>
<g mask="url(#mask1_60_430)">
<path d="M278.957 76.3843C278.627 76.3843 278.358 76.1187 278.358 75.791V29.0067C278.358 28.679 278.627 28.4133 278.957 28.4133H282.639C282.97 28.4133 283.238 28.679 283.238 29.0067V75.791C283.238 76.1187 282.97 76.3843 282.639 76.3843H278.957Z" stroke="#0075FF" stroke-width="0.8" stroke-linejoin="round"/>
</g>
<path d="M302.118 77.3634C299.418 77.3634 297.15 76.8847 295.314 75.9275C293.5 74.9703 292.138 73.6976 291.23 72.1094C290.324 70.5212 289.87 68.7916 289.87 66.9207C289.87 65.0062 290.257 63.3745 291.031 62.0257C291.828 60.6551 292.902 59.5347 294.252 58.6645C295.624 57.7942 297.206 57.1307 298.998 56.6738C300.813 56.2388 302.816 55.858 305.006 55.5317C307.219 55.1835 309.377 54.8898 311.479 54.6506C312.983 54.4658 314.354 54.2863 315.593 54.1124C315.915 54.067 316.07 54.4956 315.793 54.6636C315.593 54.7851 315.335 54.6384 315.333 54.4054C315.321 51.1962 314.634 48.7978 313.271 47.2102C311.833 45.535 309.332 44.6974 305.77 44.6974C303.313 44.6974 301.233 45.2413 299.529 46.3291C297.986 47.3272 296.861 48.8567 296.157 50.9173C296.051 51.2282 295.72 51.4105 295.401 51.3187L291.788 50.2753C291.477 50.1857 291.293 49.8677 291.385 49.5607C292.247 46.6722 293.846 44.4092 296.177 42.772C298.654 41.0316 301.875 40.1614 305.836 40.1614C309.111 40.1614 311.888 40.7706 314.168 41.9888C316.469 43.1854 318.096 44.9258 319.047 47.2102C319.489 48.2326 319.777 49.3748 319.91 50.6367C320.043 51.8985 320.109 53.1821 320.109 54.4874V75.791C320.109 76.1187 319.841 76.3844 319.51 76.3844H316.36C316.029 76.3844 315.76 76.1187 315.76 75.791V68.3588C315.76 67.9699 316.16 67.7063 316.523 67.8562C316.8 67.9709 316.933 68.2849 316.815 68.5576C315.594 71.3396 313.771 73.4808 311.346 74.9811C308.78 76.5694 305.703 77.3634 302.118 77.3634ZM302.683 73.2189C304.961 73.2189 306.954 72.8165 308.657 72.0115C310.362 71.2065 311.734 70.1079 312.773 68.7155C313.813 67.3015 314.489 65.7133 314.799 63.9511C315.064 62.8197 315.208 61.5797 315.23 60.2309C315.245 59.2716 315.256 58.4829 315.26 57.8647C315.263 57.5443 315.605 57.3376 315.894 57.484C316.27 57.676 316.172 58.2325 315.751 58.2852C314.481 58.4444 313.134 58.6034 311.711 58.7624C309.786 58.98 307.882 59.2301 306.002 59.5129C304.143 59.7958 302.461 60.133 300.957 60.5246C299.938 60.8074 298.954 61.2099 298.003 61.732C297.05 62.2323 296.265 62.9068 295.645 63.7553C295.049 64.6037 294.749 65.6588 294.749 66.9207C294.749 67.9432 295.004 68.9332 295.513 69.8903C296.043 70.8475 296.885 71.6417 298.036 72.2726C299.209 72.9034 300.758 73.2189 302.683 73.2189Z" fill="#0075FF"/>
<mask id="mask2_60_430" style="mask-type:luminance" maskUnits="userSpaceOnUse" x="200" y="26" width="178" height="53">
<path d="M377.737 26.9299H200.97V78.8466H377.737V26.9299Z" fill="white"/>
<path d="M254.706 77.3634C251.142 77.3634 248.099 76.5694 245.577 74.9811C243.054 73.3929 241.117 71.1957 239.767 68.3892C238.418 65.5827 237.743 62.3629 237.743 58.7297C237.743 55.0313 238.429 51.7897 239.802 49.005C241.172 46.2203 243.12 44.0556 245.642 42.511C248.188 40.9446 251.209 40.1614 254.706 40.1614C258.29 40.1614 261.343 40.9554 263.866 42.5436C266.411 44.11 268.348 46.2964 269.675 49.1029C271.025 51.8876 271.701 55.0966 271.701 58.7297C271.701 62.4281 271.025 65.6806 269.675 68.4871C268.326 71.2718 266.378 73.4474 263.833 75.0138C261.288 76.5802 258.245 77.3634 254.706 77.3634ZM254.706 72.7621C258.689 72.7621 261.653 71.4676 263.601 68.8787C265.548 66.268 266.522 62.885 266.522 58.7297C266.522 54.4656 265.538 51.0717 263.568 48.5481C261.62 46.0246 258.666 44.7627 254.706 44.7627C252.027 44.7627 249.814 45.3609 248.066 46.5575C246.341 47.7323 245.046 49.3748 244.182 51.4851C243.342 53.5737 242.921 55.9885 242.921 58.7297C242.921 62.9721 243.917 66.3768 245.909 68.944C247.9 71.4894 250.832 72.7621 254.706 72.7621Z" fill="black"/>
<path d="M278.957 76.3843C278.627 76.3843 278.358 76.1187 278.358 75.791V29.0067C278.358 28.679 278.627 28.4133 278.957 28.4133H282.639C282.97 28.4133 283.238 28.679 283.238 29.0067V75.791C283.238 76.1187 282.97 76.3843 282.639 76.3843H278.957Z" fill="black"/>
<path d="M302.118 77.3634C299.419 77.3634 297.151 76.8847 295.314 75.9275C293.5 74.9703 292.138 73.6976 291.23 72.1094C290.324 70.5212 289.87 68.7916 289.87 66.9207C289.87 65.0062 290.257 63.3745 291.031 62.0257C291.828 60.6551 292.902 59.5347 294.252 58.6645C295.624 57.7942 297.206 57.1307 298.998 56.6738C300.813 56.2388 302.816 55.858 305.006 55.5317C307.219 55.1835 309.377 54.8898 311.479 54.6506C312.983 54.4658 314.354 54.2863 315.593 54.1124C315.915 54.067 316.071 54.4956 315.793 54.6636C315.593 54.7851 315.335 54.6384 315.334 54.4054C315.322 51.1962 314.634 48.7978 313.271 47.2102C311.833 45.535 309.332 44.6974 305.77 44.6974C303.313 44.6974 301.233 45.2413 299.529 46.3291C297.986 47.3272 296.861 48.8567 296.157 50.9173C296.051 51.2282 295.72 51.4105 295.401 51.3187L291.788 50.2753C291.477 50.1857 291.293 49.8677 291.385 49.5607C292.247 46.6722 293.846 44.4092 296.177 42.772C298.655 41.0316 301.875 40.1614 305.836 40.1614C309.111 40.1614 311.888 40.7706 314.168 41.9888C316.469 43.1854 318.096 44.9258 319.047 47.2102C319.489 48.2326 319.777 49.3748 319.91 50.6367C320.043 51.8985 320.109 53.1821 320.109 54.4874V75.791C320.109 76.1187 319.841 76.3844 319.51 76.3844H316.36C316.029 76.3844 315.76 76.1187 315.76 75.791V68.3588C315.76 67.9699 316.16 67.7063 316.523 67.8562C316.8 67.9709 316.933 68.2849 316.815 68.5576C315.594 71.3396 313.771 73.4808 311.346 74.9811C308.78 76.5694 305.703 77.3634 302.118 77.3634ZM302.683 73.2189C304.961 73.2189 306.954 72.8165 308.657 72.0115C310.362 71.2065 311.734 70.1079 312.773 68.7155C313.813 67.3015 314.489 65.7133 314.799 63.9511C315.064 62.8197 315.208 61.5797 315.23 60.2309C315.245 59.2716 315.256 58.4829 315.26 57.8647C315.263 57.5443 315.605 57.3376 315.894 57.484C316.27 57.676 316.172 58.2325 315.751 58.2852C314.481 58.4444 313.134 58.6034 311.711 58.7624C309.786 58.98 307.882 59.2301 306.002 59.5129C304.143 59.7958 302.461 60.133 300.957 60.5246C299.938 60.8074 298.954 61.2099 298.003 61.732C297.05 62.2323 296.265 62.9068 295.645 63.7553C295.049 64.6037 294.749 65.6588 294.749 66.9207C294.749 67.9432 295.004 68.9332 295.513 69.8903C296.043 70.8475 296.885 71.6417 298.036 72.2726C299.209 72.9034 300.758 73.2189 302.683 73.2189Z" fill="black"/>
<path d="M328.022 76.3843C327.691 76.3843 327.423 76.1187 327.423 75.791V41.7337C327.423 41.406 327.691 41.1403 328.022 41.1403H331.205C331.536 41.1403 331.804 41.406 331.804 41.7337V48.448C331.804 48.8305 331.314 48.9956 331.079 48.6926C330.994 48.5825 330.971 48.4361 331.022 48.3071C331.41 47.3435 331.903 46.4557 332.501 45.6437C333.144 44.7518 333.84 44.0229 334.592 43.4573C335.522 42.6523 336.607 42.0432 337.846 41.6298C339.085 41.1948 340.336 40.9445 341.597 40.8793C342.677 40.8048 343.676 40.8579 344.594 41.0387C344.863 41.0917 345.048 41.3305 345.048 41.6021V44.8821C345.048 45.2686 344.681 45.5516 344.296 45.4858C343.2 45.2975 342.024 45.2741 340.767 45.4153C339.218 45.5893 337.79 46.1985 336.484 47.2428C335.29 48.1565 334.393 49.2552 333.797 50.5387C333.199 51.8006 332.801 53.1494 332.601 54.5853C332.402 55.9993 332.302 57.4026 332.302 58.795V75.791C332.302 76.1187 332.034 76.3843 331.702 76.3843H328.022Z" fill="black"/>
<path d="M362.099 77.3307C357.894 77.3307 354.43 76.4388 351.709 74.6548C349.18 72.984 347.564 70.7023 346.859 67.8101C346.782 67.4854 347.005 67.1695 347.337 67.1149L351.169 66.4868C351.475 66.4368 351.767 66.6261 351.864 66.9167C352.456 68.6779 353.611 70.1042 355.326 71.1957C357.23 72.3705 359.576 72.9579 362.364 72.9579C365.086 72.9579 367.233 72.4031 368.804 71.2936C370.374 70.1622 371.16 68.6285 371.16 66.6923C371.16 65.6045 370.906 64.7234 370.396 64.049C369.91 63.3528 368.903 62.711 367.376 62.1236C365.848 61.5362 363.57 60.8401 360.538 60.0351C357.286 59.1648 354.741 58.2947 352.904 57.4244C351.067 56.5541 349.761 55.5535 348.987 54.4221C348.212 53.2691 347.826 51.8659 347.826 50.2124C347.826 48.211 348.401 46.4596 349.551 44.9585C350.702 43.4355 352.294 42.2607 354.332 41.4341C356.367 40.5856 358.734 40.1614 361.434 40.1614C364.135 40.1614 366.546 40.5964 368.671 41.4667C370.817 42.3152 372.543 43.5118 373.849 45.0564C375.036 46.4601 375.783 48.0705 376.092 49.8874C376.146 50.1972 375.929 50.484 375.617 50.5392L371.794 51.2156C371.464 51.2741 371.153 51.0519 371.075 50.7286C370.65 48.9405 369.637 47.5065 368.04 46.427C366.292 45.2087 364.067 44.5777 361.368 44.5342C358.823 44.469 356.754 44.9476 355.16 45.9701C353.568 46.9709 352.771 48.3089 352.771 49.984C352.771 50.9195 353.058 51.7244 353.633 52.3989C354.209 53.0515 355.25 53.6716 356.754 54.259C358.28 54.8464 360.449 55.4882 363.26 56.1843C366.557 57.011 369.147 57.8813 371.027 58.795C372.909 59.7087 374.246 60.7856 375.043 62.0257C375.84 63.2658 376.239 64.7995 376.239 66.627C376.239 69.9556 374.977 72.5771 372.455 74.4916C369.954 76.3844 366.502 77.3307 362.099 77.3307Z" fill="black"/>
<path d="M202.979 76.3846C202.697 76.3846 202.468 76.1599 202.468 75.8826V29.8947C202.468 29.6175 202.697 29.3926 202.979 29.3926H220.924C221.388 29.3926 221.908 29.4144 222.483 29.4578C223.081 29.4797 223.678 29.5449 224.276 29.6536C226.776 30.0236 228.89 30.8829 230.616 32.2317C232.364 33.5588 233.681 35.2339 234.566 37.2572C235.474 39.2805 235.928 41.5213 235.928 43.9797C235.928 46.4164 235.474 48.6462 234.566 50.6695C233.658 52.6928 232.331 54.3789 230.583 55.7277C228.857 57.0548 226.754 57.9033 224.276 58.2731C223.678 58.3602 223.081 58.4254 222.483 58.4689C221.908 58.5125 221.388 58.5341 220.924 58.5341H207.858C207.576 58.5341 207.347 58.759 207.347 59.0363V75.8826C207.347 76.1599 207.119 76.3846 206.836 76.3846H202.979ZM207.347 53.4635C207.347 53.7408 207.576 53.9655 207.858 53.9655H220.79C221.189 53.9655 221.653 53.9438 222.185 53.9002C222.717 53.8568 223.237 53.7807 223.744 53.6718C225.383 53.3238 226.721 52.6601 227.762 51.6811C228.824 50.7021 229.609 49.5383 230.118 48.1894C230.649 46.8406 230.915 45.4374 230.915 43.9797C230.915 42.5222 230.649 41.1189 230.118 39.77C229.609 38.3994 228.824 37.2246 227.762 36.2456C226.721 35.2666 225.383 34.6031 223.744 34.2549C223.237 34.1462 222.717 34.081 222.185 34.0591C221.653 34.0157 221.189 33.9939 220.79 33.9939H207.858C207.576 33.9939 207.347 34.2188 207.347 34.496V53.4635Z" fill="black"/>
</mask>
<g mask="url(#mask2_60_430)">
<path d="M302.118 77.3634C299.419 77.3634 297.151 76.8847 295.314 75.9275C293.5 74.9703 292.138 73.6976 291.23 72.1094C290.324 70.5212 289.87 68.7916 289.87 66.9207C289.87 65.0062 290.257 63.3745 291.031 62.0257C291.828 60.6551 292.902 59.5348 294.252 58.6645C295.624 57.7942 297.206 57.1307 298.998 56.6738C300.813 56.2388 302.816 55.858 305.006 55.5317C307.219 55.1835 309.377 54.8898 311.479 54.6506C312.983 54.4658 314.354 54.2863 315.593 54.1124C315.915 54.067 316.071 54.4956 315.793 54.6636C315.593 54.7851 315.335 54.6384 315.334 54.4054C315.322 51.1962 314.634 48.7978 313.271 47.2102C311.833 45.535 309.332 44.6974 305.77 44.6974C303.313 44.6974 301.233 45.2413 299.529 46.3291C297.986 47.3272 296.861 48.8567 296.157 50.9173C296.051 51.2282 295.72 51.4105 295.401 51.3187L291.788 50.2753C291.477 50.1857 291.293 49.8677 291.385 49.5607C292.247 46.6722 293.846 44.4092 296.177 42.772C298.655 41.0316 301.875 40.1614 305.836 40.1614C309.111 40.1614 311.888 40.7706 314.168 41.9888C316.469 43.1854 318.096 44.9258 319.047 47.2102C319.489 48.2326 319.777 49.3748 319.91 50.6367C320.043 51.8985 320.109 53.1821 320.109 54.4874V75.791C320.109 76.1187 319.841 76.3844 319.51 76.3844H316.36C316.029 76.3844 315.76 76.1187 315.76 75.791V68.3588C315.76 67.9699 316.16 67.7063 316.523 67.8562C316.8 67.9709 316.933 68.2849 316.815 68.5576C315.594 71.3396 313.771 73.4808 311.346 74.9811C308.78 76.5694 305.703 77.3634 302.118 77.3634ZM302.683 73.2189C304.961 73.2189 306.954 72.8165 308.657 72.0115C310.362 71.2065 311.734 70.1079 312.773 68.7155C313.813 67.3015 314.489 65.7133 314.799 63.9511C315.064 62.8197 315.208 61.5797 315.23 60.2309C315.245 59.2716 315.256 58.4829 315.26 57.8647C315.263 57.5443 315.605 57.3376 315.894 57.484C316.27 57.676 316.172 58.2325 315.751 58.2852C314.481 58.4444 313.134 58.6034 311.711 58.7624C309.786 58.98 307.882 59.2301 306.002 59.5129C304.143 59.7958 302.461 60.133 300.957 60.5246C299.938 60.8074 298.954 61.2099 298.003 61.732C297.05 62.2323 296.265 62.9068 295.645 63.7553C295.049 64.6037 294.749 65.6588 294.749 66.9207C294.749 67.9432 295.004 68.9332 295.513 69.8903C296.043 70.8475 296.885 71.6417 298.036 72.2726C299.209 72.9034 300.758 73.2189 302.683 73.2189Z" stroke="#0075FF" stroke-width="0.8" stroke-linejoin="round"/>
</g>
<path d="M328.022 76.3836C327.691 76.3836 327.422 76.1179 327.422 75.7903V41.7329C327.422 41.4053 327.691 41.1396 328.022 41.1396H331.205C331.536 41.1396 331.804 41.4053 331.804 41.7329V48.4473C331.804 48.8298 331.314 48.9949 331.079 48.6919C330.994 48.5818 330.971 48.4354 331.022 48.3063C331.41 47.3428 331.903 46.455 332.501 45.643C333.143 44.7511 333.84 44.0222 334.592 43.4566C335.522 42.6516 336.607 42.0425 337.846 41.6291C339.085 41.194 340.335 40.9438 341.597 40.8785C342.677 40.8041 343.676 40.8572 344.594 41.038C344.862 41.091 345.048 41.3298 345.048 41.6014V44.8813C345.048 45.2679 344.681 45.5509 344.296 45.485C343.2 45.2968 342.024 45.2734 340.767 45.4146C339.218 45.5886 337.79 46.1978 336.484 47.242C335.29 48.1558 334.393 49.2545 333.797 50.538C333.199 51.7999 332.8 53.1487 332.601 54.5845C332.402 55.9986 332.301 57.4018 332.301 58.7942V75.7903C332.301 76.1179 332.033 76.3836 331.702 76.3836H328.022Z" fill="#0075FF"/>
<mask id="mask3_60_430" style="mask-type:luminance" maskUnits="userSpaceOnUse" x="200" y="26" width="178" height="53">
<path d="M377.737 26.9299H200.97V78.8466H377.737V26.9299Z" fill="white"/>
<path d="M254.706 77.3634C251.142 77.3634 248.099 76.5694 245.577 74.9811C243.054 73.3929 241.117 71.1957 239.767 68.3892C238.418 65.5827 237.743 62.3629 237.743 58.7297C237.743 55.0313 238.429 51.7897 239.802 49.005C241.172 46.2203 243.12 44.0556 245.642 42.511C248.188 40.9446 251.209 40.1614 254.706 40.1614C258.29 40.1614 261.343 40.9554 263.866 42.5436C266.411 44.11 268.348 46.2964 269.675 49.1029C271.025 51.8876 271.701 55.0966 271.701 58.7297C271.701 62.4281 271.025 65.6806 269.675 68.4871C268.326 71.2718 266.378 73.4474 263.833 75.0138C261.288 76.5802 258.245 77.3634 254.706 77.3634ZM254.706 72.7621C258.689 72.7621 261.653 71.4676 263.601 68.8787C265.548 66.268 266.522 62.885 266.522 58.7297C266.522 54.4656 265.538 51.0717 263.568 48.5481C261.62 46.0246 258.666 44.7627 254.706 44.7627C252.027 44.7627 249.814 45.3609 248.066 46.5575C246.341 47.7323 245.046 49.3748 244.182 51.4851C243.342 53.5737 242.921 55.9885 242.921 58.7297C242.921 62.9721 243.917 66.3768 245.909 68.944C247.9 71.4894 250.832 72.7621 254.706 72.7621Z" fill="black"/>
<path d="M278.957 76.3843C278.627 76.3843 278.358 76.1187 278.358 75.791V29.0067C278.358 28.679 278.627 28.4133 278.957 28.4133H282.639C282.97 28.4133 283.238 28.679 283.238 29.0067V75.791C283.238 76.1187 282.97 76.3843 282.639 76.3843H278.957Z" fill="black"/>
<path d="M302.118 77.3634C299.419 77.3634 297.151 76.8847 295.314 75.9275C293.5 74.9703 292.138 73.6976 291.23 72.1094C290.324 70.5212 289.87 68.7916 289.87 66.9207C289.87 65.0062 290.257 63.3745 291.031 62.0257C291.828 60.6551 292.902 59.5347 294.252 58.6645C295.624 57.7942 297.206 57.1307 298.998 56.6738C300.813 56.2388 302.816 55.858 305.006 55.5317C307.219 55.1835 309.377 54.8898 311.479 54.6506C312.983 54.4658 314.354 54.2863 315.593 54.1124C315.915 54.067 316.071 54.4956 315.793 54.6636C315.593 54.7851 315.335 54.6384 315.334 54.4054C315.322 51.1962 314.634 48.7978 313.271 47.2102C311.833 45.535 309.332 44.6974 305.77 44.6974C303.313 44.6974 301.233 45.2413 299.529 46.3291C297.986 47.3272 296.861 48.8567 296.157 50.9173C296.051 51.2282 295.72 51.4105 295.401 51.3187L291.788 50.2753C291.477 50.1857 291.293 49.8677 291.385 49.5607C292.247 46.6722 293.846 44.4092 296.177 42.772C298.655 41.0316 301.875 40.1614 305.836 40.1614C309.111 40.1614 311.888 40.7706 314.168 41.9888C316.469 43.1854 318.096 44.9258 319.047 47.2102C319.489 48.2326 319.777 49.3748 319.91 50.6367C320.043 51.8985 320.109 53.1821 320.109 54.4874V75.791C320.109 76.1187 319.841 76.3844 319.51 76.3844H316.36C316.029 76.3844 315.76 76.1187 315.76 75.791V68.3588C315.76 67.9699 316.16 67.7063 316.523 67.8562C316.8 67.9709 316.933 68.2849 316.815 68.5576C315.594 71.3396 313.771 73.4808 311.346 74.9811C308.78 76.5694 305.703 77.3634 302.118 77.3634ZM302.683 73.2189C304.961 73.2189 306.954 72.8165 308.657 72.0115C310.362 71.2065 311.734 70.1079 312.773 68.7155C313.813 67.3015 314.489 65.7133 314.799 63.9511C315.064 62.8197 315.208 61.5797 315.23 60.2309C315.245 59.2716 315.256 58.4829 315.26 57.8647C315.263 57.5443 315.605 57.3376 315.894 57.484C316.27 57.676 316.172 58.2325 315.751 58.2852C314.481 58.4444 313.134 58.6034 311.711 58.7624C309.786 58.98 307.882 59.2301 306.002 59.5129C304.143 59.7958 302.461 60.133 300.957 60.5246C299.938 60.8074 298.954 61.2099 298.003 61.732C297.05 62.2323 296.265 62.9068 295.645 63.7553C295.049 64.6037 294.749 65.6588 294.749 66.9207C294.749 67.9432 295.004 68.9332 295.513 69.8903C296.043 70.8475 296.885 71.6417 298.036 72.2726C299.209 72.9034 300.758 73.2189 302.683 73.2189Z" fill="black"/>
<path d="M328.022 76.3843C327.691 76.3843 327.423 76.1187 327.423 75.791V41.7337C327.423 41.406 327.691 41.1403 328.022 41.1403H331.205C331.536 41.1403 331.804 41.406 331.804 41.7337V48.448C331.804 48.8305 331.314 48.9956 331.079 48.6926C330.994 48.5825 330.971 48.4361 331.022 48.3071C331.41 47.3435 331.903 46.4557 332.501 45.6437C333.144 44.7518 333.84 44.0229 334.592 43.4573C335.522 42.6523 336.607 42.0432 337.846 41.6298C339.085 41.1948 340.336 40.9445 341.597 40.8793C342.677 40.8048 343.676 40.8579 344.594 41.0387C344.863 41.0917 345.048 41.3305 345.048 41.6021V44.8821C345.048 45.2686 344.681 45.5516 344.296 45.4858C343.2 45.2975 342.024 45.2741 340.767 45.4153C339.218 45.5893 337.79 46.1985 336.484 47.2428C335.29 48.1565 334.393 49.2552 333.797 50.5387C333.199 51.8006 332.801 53.1494 332.601 54.5853C332.402 55.9993 332.302 57.4026 332.302 58.795V75.791C332.302 76.1187 332.034 76.3843 331.702 76.3843H328.022Z" fill="black"/>
<path d="M362.099 77.3307C357.894 77.3307 354.43 76.4388 351.709 74.6548C349.18 72.984 347.564 70.7023 346.859 67.8101C346.782 67.4854 347.005 67.1695 347.337 67.1149L351.169 66.4868C351.475 66.4368 351.767 66.6261 351.864 66.9167C352.456 68.6779 353.611 70.1042 355.326 71.1957C357.23 72.3705 359.576 72.9579 362.364 72.9579C365.086 72.9579 367.233 72.4031 368.804 71.2936C370.374 70.1622 371.16 68.6285 371.16 66.6923C371.16 65.6045 370.906 64.7234 370.396 64.049C369.91 63.3528 368.903 62.711 367.376 62.1236C365.848 61.5362 363.57 60.8401 360.538 60.0351C357.286 59.1648 354.741 58.2947 352.904 57.4244C351.067 56.5541 349.761 55.5535 348.987 54.4221C348.212 53.2691 347.826 51.8659 347.826 50.2124C347.826 48.211 348.401 46.4596 349.551 44.9585C350.702 43.4355 352.294 42.2607 354.332 41.4341C356.367 40.5856 358.734 40.1614 361.434 40.1614C364.135 40.1614 366.546 40.5964 368.671 41.4667C370.817 42.3152 372.543 43.5118 373.849 45.0564C375.036 46.4601 375.783 48.0705 376.092 49.8874C376.146 50.1972 375.929 50.484 375.617 50.5392L371.794 51.2156C371.464 51.2741 371.153 51.0519 371.075 50.7286C370.65 48.9405 369.637 47.5065 368.04 46.427C366.292 45.2087 364.067 44.5777 361.368 44.5342C358.823 44.469 356.754 44.9476 355.16 45.9701C353.568 46.9709 352.771 48.3089 352.771 49.984C352.771 50.9195 353.058 51.7244 353.633 52.3989C354.209 53.0515 355.25 53.6716 356.754 54.259C358.28 54.8464 360.449 55.4882 363.26 56.1843C366.557 57.011 369.147 57.8813 371.027 58.795C372.909 59.7087 374.246 60.7856 375.043 62.0257C375.84 63.2658 376.239 64.7995 376.239 66.627C376.239 69.9556 374.977 72.5771 372.455 74.4916C369.954 76.3844 366.502 77.3307 362.099 77.3307Z" fill="black"/>
<path d="M202.979 76.3846C202.697 76.3846 202.468 76.1599 202.468 75.8826V29.8947C202.468 29.6175 202.697 29.3926 202.979 29.3926H220.924C221.388 29.3926 221.908 29.4144 222.483 29.4578C223.081 29.4797 223.678 29.5449 224.276 29.6536C226.776 30.0236 228.89 30.8829 230.616 32.2317C232.364 33.5588 233.681 35.2339 234.566 37.2572C235.474 39.2805 235.928 41.5213 235.928 43.9797C235.928 46.4164 235.474 48.6462 234.566 50.6695C233.658 52.6928 232.331 54.3789 230.583 55.7277C228.857 57.0548 226.754 57.9033 224.276 58.2731C223.678 58.3602 223.081 58.4254 222.483 58.4689C221.908 58.5125 221.388 58.5341 220.924 58.5341H207.858C207.576 58.5341 207.347 58.759 207.347 59.0363V75.8826C207.347 76.1599 207.119 76.3846 206.836 76.3846H202.979ZM207.347 53.4635C207.347 53.7408 207.576 53.9655 207.858 53.9655H220.79C221.189 53.9655 221.653 53.9438 222.185 53.9002C222.717 53.8568 223.237 53.7807 223.744 53.6718C225.383 53.3238 226.721 52.6601 227.762 51.6811C228.824 50.7021 229.609 49.5383 230.118 48.1894C230.649 46.8406 230.915 45.4374 230.915 43.9797C230.915 42.5222 230.649 41.1189 230.118 39.77C229.609 38.3994 228.824 37.2246 227.762 36.2456C226.721 35.2666 225.383 34.6031 223.744 34.2549C223.237 34.1462 222.717 34.081 222.185 34.0591C221.653 34.0157 221.189 33.9939 220.79 33.9939H207.858C207.576 33.9939 207.347 34.2188 207.347 34.496V53.4635Z" fill="black"/>
</mask>
<g mask="url(#mask3_60_430)">
<path d="M328.022 76.3843C327.691 76.3843 327.423 76.1187 327.423 75.791V41.7337C327.423 41.406 327.691 41.1403 328.022 41.1403H331.205C331.536 41.1403 331.804 41.406 331.804 41.7337V48.448C331.804 48.8305 331.314 48.9956 331.079 48.6926C330.994 48.5825 330.971 48.4361 331.022 48.3071C331.41 47.3435 331.903 46.4557 332.501 45.6437C333.144 44.7518 333.84 44.0229 334.592 43.4573C335.522 42.6523 336.607 42.0432 337.846 41.6298C339.085 41.1948 340.336 40.9445 341.597 40.8793C342.677 40.8048 343.676 40.8579 344.594 41.0387C344.863 41.0917 345.048 41.3305 345.048 41.6021V44.8821C345.048 45.2686 344.681 45.5516 344.296 45.4858C343.2 45.2975 342.024 45.2741 340.767 45.4153C339.218 45.5893 337.79 46.1985 336.484 47.2428C335.29 48.1565 334.393 49.2552 333.797 50.5387C333.199 51.8006 332.801 53.1494 332.601 54.5853C332.402 55.9993 332.302 57.4026 332.302 58.795V75.791C332.302 76.1187 332.034 76.3843 331.702 76.3843H328.022Z" stroke="#0075FF" stroke-width="0.8" stroke-linejoin="round"/>
</g>
<path d="M362.099 77.3307C357.894 77.3307 354.43 76.4388 351.708 74.6548C349.18 72.984 347.563 70.7023 346.859 67.8101C346.781 67.4854 347.005 67.1695 347.337 67.1149L351.169 66.4868C351.475 66.4368 351.767 66.6261 351.864 66.9167C352.456 68.6779 353.611 70.1042 355.326 71.1957C357.23 72.3705 359.576 72.9579 362.364 72.9579C365.086 72.9579 367.232 72.4031 368.804 71.2936C370.374 70.1622 371.16 68.6285 371.16 66.6923C371.16 65.6045 370.906 64.7234 370.396 64.049C369.909 63.3528 368.903 62.711 367.376 62.1236C365.848 61.5362 363.57 60.8401 360.538 60.0351C357.285 59.1648 354.74 58.2947 352.904 57.4244C351.067 56.5541 349.761 55.5535 348.986 54.4221C348.212 53.2691 347.825 51.8659 347.825 50.2124C347.825 48.211 348.401 46.4596 349.551 44.9585C350.702 43.4355 352.294 42.2607 354.331 41.4341C356.367 40.5856 358.734 40.1614 361.434 40.1614C364.134 40.1614 366.546 40.5964 368.67 41.4667C370.817 42.3152 372.543 43.5118 373.849 45.0564C375.036 46.4601 375.783 48.0705 376.092 49.8874C376.146 50.1972 375.928 50.484 375.617 50.5392L371.794 51.2156C371.464 51.2741 371.153 51.0519 371.075 50.7286C370.649 48.9405 369.637 47.5065 368.04 46.427C366.292 45.2087 364.067 44.5777 361.368 44.5342C358.822 44.469 356.754 44.9476 355.16 45.9701C353.567 46.9709 352.77 48.3089 352.77 49.984C352.77 50.9195 353.058 51.7244 353.633 52.3989C354.209 53.0515 355.25 53.6716 356.754 54.259C358.28 54.8464 360.449 55.4882 363.26 56.1843C366.557 57.011 369.147 57.8813 371.027 58.795C372.908 59.7087 374.246 60.7856 375.043 62.0257C375.84 63.2658 376.238 64.7995 376.238 66.627C376.238 69.9556 374.977 72.5771 372.454 74.4916C369.954 76.3844 366.501 77.3307 362.099 77.3307Z" fill="#0075FF"/>
<mask id="mask4_60_430" style="mask-type:luminance" maskUnits="userSpaceOnUse" x="200" y="26" width="178" height="53">
<path d="M377.737 26.9299H200.97V78.8466H377.737V26.9299Z" fill="white"/>
<path d="M254.706 77.3634C251.142 77.3634 248.099 76.5694 245.577 74.9811C243.054 73.3929 241.117 71.1957 239.767 68.3892C238.418 65.5827 237.743 62.3629 237.743 58.7297C237.743 55.0313 238.429 51.7897 239.802 49.005C241.172 46.2203 243.12 44.0556 245.642 42.511C248.188 40.9446 251.209 40.1614 254.706 40.1614C258.29 40.1614 261.343 40.9554 263.866 42.5436C266.411 44.11 268.348 46.2964 269.675 49.1029C271.025 51.8876 271.701 55.0966 271.701 58.7297C271.701 62.4281 271.025 65.6806 269.675 68.4871C268.326 71.2718 266.378 73.4474 263.833 75.0138C261.288 76.5802 258.245 77.3634 254.706 77.3634ZM254.706 72.7621C258.689 72.7621 261.653 71.4676 263.601 68.8787C265.548 66.268 266.522 62.885 266.522 58.7297C266.522 54.4656 265.538 51.0717 263.568 48.5481C261.62 46.0246 258.666 44.7627 254.706 44.7627C252.027 44.7627 249.814 45.3609 248.066 46.5575C246.341 47.7323 245.046 49.3748 244.182 51.4851C243.342 53.5737 242.921 55.9885 242.921 58.7297C242.921 62.9721 243.917 66.3768 245.909 68.944C247.9 71.4894 250.832 72.7621 254.706 72.7621Z" fill="black"/>
<path d="M278.957 76.3843C278.627 76.3843 278.358 76.1187 278.358 75.791V29.0067C278.358 28.679 278.627 28.4133 278.957 28.4133H282.639C282.97 28.4133 283.238 28.679 283.238 29.0067V75.791C283.238 76.1187 282.97 76.3843 282.639 76.3843H278.957Z" fill="black"/>
<path d="M302.118 77.3634C299.419 77.3634 297.151 76.8847 295.314 75.9275C293.5 74.9703 292.138 73.6976 291.23 72.1094C290.324 70.5212 289.87 68.7916 289.87 66.9207C289.87 65.0062 290.257 63.3745 291.031 62.0257C291.828 60.6551 292.902 59.5347 294.252 58.6645C295.624 57.7942 297.206 57.1307 298.998 56.6738C300.813 56.2388 302.816 55.858 305.006 55.5317C307.219 55.1835 309.377 54.8898 311.479 54.6506C312.983 54.4658 314.354 54.2863 315.593 54.1124C315.915 54.067 316.071 54.4956 315.793 54.6636C315.593 54.7851 315.335 54.6384 315.334 54.4054C315.322 51.1962 314.634 48.7978 313.271 47.2102C311.833 45.535 309.332 44.6974 305.77 44.6974C303.313 44.6974 301.233 45.2413 299.529 46.3291C297.986 47.3272 296.861 48.8567 296.157 50.9173C296.051 51.2282 295.72 51.4105 295.401 51.3187L291.788 50.2753C291.477 50.1857 291.293 49.8677 291.385 49.5607C292.247 46.6722 293.846 44.4092 296.177 42.772C298.655 41.0316 301.875 40.1614 305.836 40.1614C309.111 40.1614 311.888 40.7706 314.168 41.9888C316.469 43.1854 318.096 44.9258 319.047 47.2102C319.489 48.2326 319.777 49.3748 319.91 50.6367C320.043 51.8985 320.109 53.1821 320.109 54.4874V75.791C320.109 76.1187 319.841 76.3844 319.51 76.3844H316.36C316.029 76.3844 315.76 76.1187 315.76 75.791V68.3588C315.76 67.9699 316.16 67.7063 316.523 67.8562C316.8 67.9709 316.933 68.2849 316.815 68.5576C315.594 71.3396 313.771 73.4808 311.346 74.9811C308.78 76.5694 305.703 77.3634 302.118 77.3634ZM302.683 73.2189C304.961 73.2189 306.954 72.8165 308.657 72.0115C310.362 71.2065 311.734 70.1079 312.773 68.7155C313.813 67.3015 314.489 65.7133 314.799 63.9511C315.064 62.8197 315.208 61.5797 315.23 60.2309C315.245 59.2716 315.256 58.4829 315.26 57.8647C315.263 57.5443 315.605 57.3376 315.894 57.484C316.27 57.676 316.172 58.2325 315.751 58.2852C314.481 58.4444 313.134 58.6034 311.711 58.7624C309.786 58.98 307.882 59.2301 306.002 59.5129C304.143 59.7958 302.461 60.133 300.957 60.5246C299.938 60.8074 298.954 61.2099 298.003 61.732C297.05 62.2323 296.265 62.9068 295.645 63.7553C295.049 64.6037 294.749 65.6588 294.749 66.9207C294.749 67.9432 295.004 68.9332 295.513 69.8903C296.043 70.8475 296.885 71.6417 298.036 72.2726C299.209 72.9034 300.758 73.2189 302.683 73.2189Z" fill="black"/>
<path d="M328.022 76.3843C327.691 76.3843 327.423 76.1187 327.423 75.791V41.7337C327.423 41.406 327.691 41.1403 328.022 41.1403H331.205C331.536 41.1403 331.804 41.406 331.804 41.7337V48.448C331.804 48.8305 331.314 48.9956 331.079 48.6926C330.994 48.5825 330.971 48.4361 331.022 48.3071C331.41 47.3435 331.903 46.4557 332.501 45.6437C333.144 44.7518 333.84 44.0229 334.592 43.4573C335.522 42.6523 336.607 42.0432 337.846 41.6298C339.085 41.1948 340.336 40.9445 341.597 40.8793C342.677 40.8048 343.676 40.8579 344.594 41.0387C344.863 41.0917 345.048 41.3305 345.048 41.6021V44.8821C345.048 45.2686 344.681 45.5516 344.296 45.4858C343.2 45.2975 342.024 45.2741 340.767 45.4153C339.218 45.5893 337.79 46.1985 336.484 47.2428C335.29 48.1565 334.393 49.2552 333.797 50.5387C333.199 51.8006 332.801 53.1494 332.601 54.5853C332.402 55.9993 332.302 57.4026 332.302 58.795V75.791C332.302 76.1187 332.034 76.3843 331.702 76.3843H328.022Z" fill="black"/>
<path d="M362.099 77.3307C357.894 77.3307 354.43 76.4388 351.709 74.6548C349.18 72.984 347.564 70.7023 346.859 67.8101C346.782 67.4854 347.005 67.1695 347.337 67.1149L351.169 66.4868C351.475 66.4368 351.767 66.6261 351.864 66.9167C352.456 68.6779 353.611 70.1042 355.326 71.1957C357.23 72.3705 359.576 72.9579 362.364 72.9579C365.086 72.9579 367.233 72.4031 368.804 71.2936C370.374 70.1622 371.16 68.6285 371.16 66.6923C371.16 65.6045 370.906 64.7234 370.396 64.049C369.91 63.3528 368.903 62.711 367.376 62.1236C365.848 61.5362 363.57 60.8401 360.538 60.0351C357.286 59.1648 354.741 58.2947 352.904 57.4244C351.067 56.5541 349.761 55.5535 348.987 54.4221C348.212 53.2691 347.826 51.8659 347.826 50.2124C347.826 48.211 348.401 46.4596 349.551 44.9585C350.702 43.4355 352.294 42.2607 354.332 41.4341C356.367 40.5856 358.734 40.1614 361.434 40.1614C364.135 40.1614 366.546 40.5964 368.671 41.4667C370.817 42.3152 372.543 43.5118 373.849 45.0564C375.036 46.4601 375.783 48.0705 376.092 49.8874C376.146 50.1972 375.929 50.484 375.617 50.5392L371.794 51.2156C371.464 51.2741 371.153 51.0519 371.075 50.7286C370.65 48.9405 369.637 47.5065 368.04 46.427C366.292 45.2087 364.067 44.5777 361.368 44.5342C358.823 44.469 356.754 44.9476 355.16 45.9701C353.568 46.9709 352.771 48.3089 352.771 49.984C352.771 50.9195 353.058 51.7244 353.633 52.3989C354.209 53.0515 355.25 53.6716 356.754 54.259C358.28 54.8464 360.449 55.4882 363.26 56.1843C366.557 57.011 369.147 57.8813 371.027 58.795C372.909 59.7087 374.246 60.7856 375.043 62.0257C375.84 63.2658 376.239 64.7995 376.239 66.627C376.239 69.9556 374.977 72.5771 372.455 74.4916C369.954 76.3844 366.502 77.3307 362.099 77.3307Z" fill="black"/>
<path d="M202.979 76.3846C202.697 76.3846 202.468 76.1599 202.468 75.8826V29.8947C202.468 29.6175 202.697 29.3926 202.979 29.3926H220.924C221.388 29.3926 221.908 29.4144 222.483 29.4578C223.081 29.4797 223.678 29.5449 224.276 29.6536C226.776 30.0236 228.89 30.8829 230.616 32.2317C232.364 33.5588 233.681 35.2339 234.566 37.2572C235.474 39.2805 235.928 41.5213 235.928 43.9797C235.928 46.4164 235.474 48.6462 234.566 50.6695C233.658 52.6928 232.331 54.3789 230.583 55.7277C228.857 57.0548 226.754 57.9033 224.276 58.2731C223.678 58.3602 223.081 58.4254 222.483 58.4689C221.908 58.5125 221.388 58.5341 220.924 58.5341H207.858C207.576 58.5341 207.347 58.759 207.347 59.0363V75.8826C207.347 76.1599 207.119 76.3846 206.836 76.3846H202.979ZM207.347 53.4635C207.347 53.7408 207.576 53.9655 207.858 53.9655H220.79C221.189 53.9655 221.653 53.9438 222.185 53.9002C222.717 53.8568 223.237 53.7807 223.744 53.6718C225.383 53.3238 226.721 52.6601 227.762 51.6811C228.824 50.7021 229.609 49.5383 230.118 48.1894C230.649 46.8406 230.915 45.4374 230.915 43.9797C230.915 42.5222 230.649 41.1189 230.118 39.77C229.609 38.3994 228.824 37.2246 227.762 36.2456C226.721 35.2666 225.383 34.6031 223.744 34.2549C223.237 34.1462 222.717 34.081 222.185 34.0591C221.653 34.0157 221.189 33.9939 220.79 33.9939H207.858C207.576 33.9939 207.347 34.2188 207.347 34.496V53.4635Z" fill="black"/>
</mask>
<g mask="url(#mask4_60_430)">
<path d="M362.099 77.3307C357.894 77.3307 354.43 76.4388 351.709 74.6548C349.18 72.984 347.564 70.7023 346.859 67.8101C346.782 67.4854 347.005 67.1695 347.337 67.1149L351.169 66.4868C351.475 66.4368 351.767 66.6261 351.864 66.9167C352.456 68.6779 353.611 70.1042 355.326 71.1957C357.23 72.3705 359.576 72.9579 362.364 72.9579C365.086 72.9579 367.233 72.4031 368.804 71.2936C370.374 70.1622 371.16 68.6285 371.16 66.6923C371.16 65.6045 370.906 64.7234 370.396 64.049C369.91 63.3528 368.903 62.711 367.376 62.1236C365.848 61.5362 363.57 60.8401 360.538 60.0351C357.286 59.1648 354.741 58.2947 352.904 57.4244C351.067 56.5541 349.761 55.5535 348.987 54.4221C348.212 53.2691 347.826 51.8659 347.826 50.2124C347.826 48.211 348.401 46.4596 349.551 44.9585C350.702 43.4355 352.294 42.2607 354.332 41.4341C356.367 40.5856 358.734 40.1614 361.434 40.1614C364.135 40.1614 366.546 40.5964 368.671 41.4667C370.817 42.3152 372.543 43.5118 373.849 45.0564C375.036 46.4601 375.783 48.0705 376.092 49.8874C376.146 50.1972 375.929 50.484 375.617 50.5392L371.794 51.2156C371.464 51.2741 371.153 51.0519 371.075 50.7286C370.65 48.9405 369.637 47.5065 368.04 46.427C366.292 45.2087 364.067 44.5777 361.368 44.5342C358.823 44.469 356.754 44.9476 355.16 45.9701C353.568 46.9709 352.771 48.3089 352.771 49.984C352.771 50.9195 353.058 51.7244 353.633 52.3989C354.209 53.0515 355.25 53.6716 356.754 54.259C358.28 54.8464 360.449 55.4882 363.26 56.1843C366.557 57.011 369.147 57.8813 371.027 58.795C372.909 59.7087 374.246 60.7856 375.043 62.0257C375.84 63.2658 376.239 64.7995 376.239 66.627C376.239 69.9556 374.977 72.5771 372.455 74.4916C369.954 76.3844 366.502 77.3307 362.099 77.3307Z" stroke="#0075FF" stroke-width="0.8" stroke-linejoin="round"/>
</g>
<path d="M254.705 77.3631C251.142 77.3631 248.099 76.5691 245.576 74.9809C243.054 73.3927 241.117 71.1954 239.767 68.389C238.417 65.5825 237.743 62.3626 237.743 58.7295C237.743 55.0311 238.429 51.7894 239.802 49.0048C241.172 46.2201 243.12 44.0553 245.642 42.5107C248.188 40.9443 251.209 40.1611 254.705 40.1611C258.29 40.1611 261.343 40.9552 263.866 42.5434C266.411 44.1098 268.348 46.2962 269.675 49.1027C271.025 51.8873 271.701 55.0964 271.701 58.7295C271.701 62.4279 271.025 65.6804 269.675 68.4869C268.325 71.2715 266.378 73.4471 263.833 75.0135C261.288 76.5799 258.245 77.3631 254.705 77.3631ZM254.705 72.7618C258.689 72.7618 261.653 71.4673 263.601 68.8785C265.548 66.2678 266.522 62.8848 266.522 58.7295C266.522 54.4654 265.538 51.0715 263.568 48.5479C261.62 46.0243 258.666 44.7624 254.705 44.7624C252.027 44.7624 249.814 45.3607 248.066 46.5573C246.34 47.7321 245.046 49.3746 244.182 51.4849C243.341 53.5734 242.921 55.9883 242.921 58.7295C242.921 62.9718 243.917 66.3765 245.909 68.9437C247.9 71.4891 250.832 72.7618 254.705 72.7618Z" fill="#0075FF"/>
<mask id="mask5_60_430" style="mask-type:luminance" maskUnits="userSpaceOnUse" x="200" y="26" width="178" height="53">
<path d="M377.737 26.9299H200.97V78.8466H377.737V26.9299Z" fill="white"/>
<path d="M254.706 77.3634C251.142 77.3634 248.099 76.5694 245.577 74.9811C243.054 73.3929 241.117 71.1957 239.767 68.3892C238.418 65.5827 237.743 62.3629 237.743 58.7297C237.743 55.0313 238.429 51.7897 239.802 49.005C241.172 46.2203 243.12 44.0556 245.642 42.511C248.188 40.9446 251.209 40.1614 254.706 40.1614C258.29 40.1614 261.343 40.9554 263.866 42.5436C266.411 44.11 268.348 46.2964 269.675 49.1029C271.025 51.8876 271.701 55.0966 271.701 58.7297C271.701 62.4281 271.025 65.6806 269.675 68.4871C268.326 71.2718 266.378 73.4474 263.833 75.0138C261.288 76.5802 258.245 77.3634 254.706 77.3634ZM254.706 72.7621C258.689 72.7621 261.653 71.4676 263.601 68.8787C265.548 66.268 266.522 62.885 266.522 58.7297C266.522 54.4656 265.538 51.0717 263.568 48.5481C261.62 46.0246 258.666 44.7627 254.706 44.7627C252.027 44.7627 249.814 45.3609 248.066 46.5575C246.341 47.7323 245.046 49.3748 244.182 51.4851C243.342 53.5737 242.921 55.9885 242.921 58.7297C242.921 62.9721 243.917 66.3768 245.909 68.944C247.9 71.4894 250.832 72.7621 254.706 72.7621Z" fill="black"/>
<path d="M278.957 76.3843C278.627 76.3843 278.358 76.1187 278.358 75.791V29.0067C278.358 28.679 278.627 28.4133 278.957 28.4133H282.639C282.97 28.4133 283.238 28.679 283.238 29.0067V75.791C283.238 76.1187 282.97 76.3843 282.639 76.3843H278.957Z" fill="black"/>
<path d="M302.118 77.3634C299.419 77.3634 297.151 76.8847 295.314 75.9275C293.5 74.9703 292.138 73.6976 291.23 72.1094C290.324 70.5212 289.87 68.7916 289.87 66.9207C289.87 65.0062 290.257 63.3745 291.031 62.0257C291.828 60.6551 292.902 59.5347 294.252 58.6645C295.624 57.7942 297.206 57.1307 298.998 56.6738C300.813 56.2388 302.816 55.858 305.006 55.5317C307.219 55.1835 309.377 54.8898 311.479 54.6506C312.983 54.4658 314.354 54.2863 315.593 54.1124C315.915 54.067 316.071 54.4956 315.793 54.6636C315.593 54.7851 315.335 54.6384 315.334 54.4054C315.322 51.1962 314.634 48.7978 313.271 47.2102C311.833 45.535 309.332 44.6974 305.77 44.6974C303.313 44.6974 301.233 45.2413 299.529 46.3291C297.986 47.3272 296.861 48.8567 296.157 50.9173C296.051 51.2282 295.72 51.4105 295.401 51.3187L291.788 50.2753C291.477 50.1857 291.293 49.8677 291.385 49.5607C292.247 46.6722 293.846 44.4092 296.177 42.772C298.655 41.0316 301.875 40.1614 305.836 40.1614C309.111 40.1614 311.888 40.7706 314.168 41.9888C316.469 43.1854 318.096 44.9258 319.047 47.2102C319.489 48.2326 319.777 49.3748 319.91 50.6367C320.043 51.8985 320.109 53.1821 320.109 54.4874V75.791C320.109 76.1187 319.841 76.3844 319.51 76.3844H316.36C316.029 76.3844 315.76 76.1187 315.76 75.791V68.3588C315.76 67.9699 316.16 67.7063 316.523 67.8562C316.8 67.9709 316.933 68.2849 316.815 68.5576C315.594 71.3396 313.771 73.4808 311.346 74.9811C308.78 76.5694 305.703 77.3634 302.118 77.3634ZM302.683 73.2189C304.961 73.2189 306.954 72.8165 308.657 72.0115C310.362 71.2065 311.734 70.1079 312.773 68.7155C313.813 67.3015 314.489 65.7133 314.799 63.9511C315.064 62.8197 315.208 61.5797 315.23 60.2309C315.245 59.2716 315.256 58.4829 315.26 57.8647C315.263 57.5443 315.605 57.3376 315.894 57.484C316.27 57.676 316.172 58.2325 315.751 58.2852C314.481 58.4444 313.134 58.6034 311.711 58.7624C309.786 58.98 307.882 59.2301 306.002 59.5129C304.143 59.7958 302.461 60.133 300.957 60.5246C299.938 60.8074 298.954 61.2099 298.003 61.732C297.05 62.2323 296.265 62.9068 295.645 63.7553C295.049 64.6037 294.749 65.6588 294.749 66.9207C294.749 67.9432 295.004 68.9332 295.513 69.8903C296.043 70.8475 296.885 71.6417 298.036 72.2726C299.209 72.9034 300.758 73.2189 302.683 73.2189Z" fill="black"/>
<path d="M328.022 76.3843C327.691 76.3843 327.423 76.1187 327.423 75.791V41.7337C327.423 41.406 327.691 41.1403 328.022 41.1403H331.205C331.536 41.1403 331.804 41.406 331.804 41.7337V48.448C331.804 48.8305 331.314 48.9956 331.079 48.6926C330.994 48.5825 330.971 48.4361 331.022 48.3071C331.41 47.3435 331.903 46.4557 332.501 45.6437C333.144 44.7518 333.84 44.0229 334.592 43.4573C335.522 42.6523 336.607 42.0432 337.846 41.6298C339.085 41.1948 340.336 40.9445 341.597 40.8793C342.677 40.8048 343.676 40.8579 344.594 41.0387C344.863 41.0917 345.048 41.3305 345.048 41.6021V44.8821C345.048 45.2686 344.681 45.5516 344.296 45.4858C343.2 45.2975 342.024 45.2741 340.767 45.4153C339.218 45.5893 337.79 46.1985 336.484 47.2428C335.29 48.1565 334.393 49.2552 333.797 50.5387C333.199 51.8006 332.801 53.1494 332.601 54.5853C332.402 55.9993 332.302 57.4026 332.302 58.795V75.791C332.302 76.1187 332.034 76.3843 331.702 76.3843H328.022Z" fill="black"/>
<path d="M362.099 77.3307C357.894 77.3307 354.43 76.4388 351.709 74.6548C349.18 72.984 347.564 70.7023 346.859 67.8101C346.782 67.4854 347.005 67.1695 347.337 67.1149L351.169 66.4868C351.475 66.4368 351.767 66.6261 351.864 66.9167C352.456 68.6779 353.611 70.1042 355.326 71.1957C357.23 72.3705 359.576 72.9579 362.364 72.9579C365.086 72.9579 367.233 72.4031 368.804 71.2936C370.374 70.1622 371.16 68.6285 371.16 66.6923C371.16 65.6045 370.906 64.7234 370.396 64.049C369.91 63.3528 368.903 62.711 367.376 62.1236C365.848 61.5362 363.57 60.8401 360.538 60.0351C357.286 59.1648 354.741 58.2947 352.904 57.4244C351.067 56.5541 349.761 55.5535 348.987 54.4221C348.212 53.2691 347.826 51.8659 347.826 50.2124C347.826 48.211 348.401 46.4596 349.551 44.9585C350.702 43.4355 352.294 42.2607 354.332 41.4341C356.367 40.5856 358.734 40.1614 361.434 40.1614C364.135 40.1614 366.546 40.5964 368.671 41.4667C370.817 42.3152 372.543 43.5118 373.849 45.0564C375.036 46.4601 375.783 48.0705 376.092 49.8874C376.146 50.1972 375.929 50.484 375.617 50.5392L371.794 51.2156C371.464 51.2741 371.153 51.0519 371.075 50.7286C370.65 48.9405 369.637 47.5065 368.04 46.427C366.292 45.2087 364.067 44.5777 361.368 44.5342C358.823 44.469 356.754 44.9476 355.16 45.9701C353.568 46.9709 352.771 48.3089 352.771 49.984C352.771 50.9195 353.058 51.7244 353.633 52.3989C354.209 53.0515 355.25 53.6716 356.754 54.259C358.28 54.8464 360.449 55.4882 363.26 56.1843C366.557 57.011 369.147 57.8813 371.027 58.795C372.909 59.7087 374.246 60.7856 375.043 62.0257C375.84 63.2658 376.239 64.7995 376.239 66.627C376.239 69.9556 374.977 72.5771 372.455 74.4916C369.954 76.3844 366.502 77.3307 362.099 77.3307Z" fill="black"/>
<path d="M202.979 76.3846C202.697 76.3846 202.468 76.1599 202.468 75.8826V29.8947C202.468 29.6175 202.697 29.3926 202.979 29.3926H220.924C221.388 29.3926 221.908 29.4144 222.483 29.4578C223.081 29.4797 223.678 29.5449 224.276 29.6536C226.776 30.0236 228.89 30.8829 230.616 32.2317C232.364 33.5588 233.681 35.2339 234.566 37.2572C235.474 39.2805 235.928 41.5213 235.928 43.9797C235.928 46.4164 235.474 48.6462 234.566 50.6695C233.658 52.6928 232.331 54.3789 230.583 55.7277C228.857 57.0548 226.754 57.9033 224.276 58.2731C223.678 58.3602 223.081 58.4254 222.483 58.4689C221.908 58.5125 221.388 58.5341 220.924 58.5341H207.858C207.576 58.5341 207.347 58.759 207.347 59.0363V75.8826C207.347 76.1599 207.119 76.3846 206.836 76.3846H202.979ZM207.347 53.4635C207.347 53.7408 207.576 53.9655 207.858 53.9655H220.79C221.189 53.9655 221.653 53.9438 222.185 53.9002C222.717 53.8568 223.237 53.7807 223.744 53.6718C225.383 53.3238 226.721 52.6601 227.762 51.6811C228.824 50.7021 229.609 49.5383 230.118 48.1894C230.649 46.8406 230.915 45.4374 230.915 43.9797C230.915 42.5222 230.649 41.1189 230.118 39.77C229.609 38.3994 228.824 37.2246 227.762 36.2456C226.721 35.2666 225.383 34.6031 223.744 34.2549C223.237 34.1462 222.717 34.081 222.185 34.0591C221.653 34.0157 221.189 33.9939 220.79 33.9939H207.858C207.576 33.9939 207.347 34.2188 207.347 34.496V53.4635Z" fill="black"/>
</mask>
<g mask="url(#mask5_60_430)">
<path d="M254.706 77.3634C251.142 77.3634 248.099 76.5694 245.577 74.9811C243.054 73.3929 241.117 71.1957 239.767 68.3892C238.418 65.5827 237.743 62.3629 237.743 58.7297C237.743 55.0313 238.429 51.7897 239.802 49.005C241.172 46.2203 243.12 44.0556 245.642 42.511C248.188 40.9446 251.209 40.1614 254.706 40.1614C258.29 40.1614 261.343 40.9554 263.866 42.5436C266.411 44.11 268.348 46.2964 269.675 49.1029C271.025 51.8876 271.701 55.0966 271.701 58.7297C271.701 62.4281 271.025 65.6806 269.675 68.4871C268.326 71.2718 266.378 73.4474 263.833 75.0138C261.288 76.5802 258.245 77.3634 254.706 77.3634ZM254.706 72.7621C258.689 72.7621 261.653 71.4676 263.601 68.8787C265.548 66.268 266.522 62.885 266.522 58.7297C266.522 54.4656 265.538 51.0717 263.568 48.5481C261.62 46.0246 258.666 44.7627 254.706 44.7627C252.027 44.7627 249.814 45.3609 248.066 46.5575C246.341 47.7323 245.046 49.3748 244.182 51.4851C243.342 53.5737 242.921 55.9885 242.921 58.7297C242.921 62.9721 243.917 66.3768 245.909 68.944C247.9 71.4894 250.832 72.7621 254.706 72.7621Z" stroke="#0075FF" stroke-width="0.8" stroke-linejoin="round"/>
</g>
<path d="M202.979 76.3843C202.697 76.3843 202.468 76.1596 202.468 75.8824V29.8944C202.468 29.6172 202.697 29.3923 202.979 29.3923H220.923C221.388 29.3923 221.908 29.4141 222.483 29.4576C223.081 29.4794 223.678 29.5447 224.276 29.6534C226.776 30.0233 228.89 30.8826 230.616 32.2314C232.364 33.5586 233.681 35.2337 234.566 37.257C235.474 39.2802 235.928 41.5211 235.928 43.9794C235.928 46.4161 235.474 48.646 234.566 50.6693C233.658 52.6925 232.331 54.3786 230.583 55.7274C228.857 57.0546 226.754 57.903 224.276 58.2728C223.678 58.3599 223.081 58.4252 222.483 58.4686C221.908 58.5122 221.388 58.5339 220.923 58.5339H207.858C207.576 58.5339 207.347 58.7588 207.347 59.036V75.8824C207.347 76.1596 207.119 76.3843 206.836 76.3843H202.979ZM207.347 53.4633C207.347 53.7405 207.576 53.9652 207.858 53.9652H220.79C221.189 53.9652 221.653 53.9436 222.185 53.9C222.717 53.8565 223.236 53.7804 223.744 53.6715C225.383 53.3235 226.721 52.6599 227.762 51.6809C228.824 50.7019 229.609 49.5381 230.118 48.1891C230.649 46.8403 230.915 45.4371 230.915 43.9794C230.915 42.5219 230.649 41.1187 230.118 39.7697C229.609 38.3991 228.824 37.2243 227.762 36.2453C226.721 35.2663 225.383 34.6028 223.744 34.2547C223.236 34.146 222.717 34.0807 222.185 34.0589C221.653 34.0154 221.189 33.9936 220.79 33.9936H207.858C207.576 33.9936 207.347 34.2185 207.347 34.4957V53.4633Z" fill="#0075FF"/>
<mask id="mask6_60_430" style="mask-type:luminance" maskUnits="userSpaceOnUse" x="200" y="26" width="178" height="53">
<path d="M377.737 26.9299H200.97V78.9511H377.737V26.9299Z" fill="white"/>
<path d="M254.705 77.4646C251.142 77.4646 248.099 76.669 245.576 75.0776C243.054 73.4862 241.117 71.2845 239.767 68.4724C238.417 65.6603 237.743 62.4339 237.743 58.7935C237.743 55.0876 238.429 51.8394 239.802 49.0492C241.172 46.2589 243.12 44.0898 245.642 42.5421C248.188 40.9725 251.209 40.1877 254.705 40.1877C258.29 40.1877 261.343 40.9834 263.866 42.5748C266.411 44.1443 268.348 46.3352 269.675 49.1473C271.025 51.9375 271.701 55.153 271.701 58.7935C271.701 62.4993 271.025 65.7584 269.675 68.5705C268.325 71.3607 266.378 73.5407 263.833 75.1103C261.288 76.6798 258.245 77.4646 254.705 77.4646ZM254.705 72.854C258.689 72.854 261.653 71.5569 263.601 68.9629C265.548 66.3469 266.522 62.9571 266.522 58.7935C266.522 54.5208 265.538 51.1201 263.568 48.5914C261.62 46.0627 258.666 44.7983 254.705 44.7983C252.027 44.7983 249.814 45.3977 248.066 46.5967C246.34 47.7739 245.046 49.4197 244.182 51.5343C243.341 53.627 242.921 56.0468 242.921 58.7935C242.921 63.0443 243.917 66.4559 245.909 69.0283C247.9 71.5788 250.832 72.854 254.705 72.854Z" fill="black"/>
<path d="M278.957 76.4835C278.627 76.4835 278.358 76.2173 278.358 75.889V29.0105C278.358 28.6822 278.627 28.416 278.957 28.416H282.639C282.97 28.416 283.238 28.6822 283.238 29.0105V75.889C283.238 76.2173 282.97 76.4835 282.639 76.4835H278.957Z" fill="black"/>
<path d="M302.118 77.4646C299.418 77.4646 297.15 76.985 295.314 76.0258C293.5 75.0667 292.138 73.7915 291.23 72.2001C290.324 70.6087 289.87 68.8756 289.87 67.0009C289.87 65.0825 290.257 63.4476 291.031 62.0961C291.828 60.7227 292.902 59.6001 294.252 58.7281C295.624 57.8561 297.206 57.1912 298.998 56.7334C300.813 56.2975 302.816 55.916 305.006 55.589C307.219 55.2401 309.377 54.9458 311.479 54.7061C312.983 54.5209 314.354 54.3411 315.593 54.1669C315.915 54.1214 316.07 54.5508 315.793 54.7192C315.593 54.8409 315.335 54.6939 315.333 54.4604C315.321 51.2448 314.634 48.8415 313.271 47.2507C311.833 45.5722 309.332 44.7329 305.77 44.7329C303.313 44.7329 301.233 45.2779 299.529 46.3679C297.986 47.368 296.861 48.9005 296.157 50.9653C296.051 51.2769 295.72 51.4595 295.401 51.3675L291.788 50.3221C291.477 50.2323 291.293 49.9136 291.385 49.6059C292.247 46.7116 293.846 44.4441 296.177 42.8037C298.654 41.0598 301.875 40.1877 305.836 40.1877C309.111 40.1877 311.888 40.7982 314.168 42.0189C316.469 43.2179 318.096 44.9618 319.047 47.2507C319.489 48.2752 319.777 49.4197 319.91 50.6841C320.043 51.9485 320.109 53.2346 320.109 54.5426V75.8891C320.109 76.2174 319.841 76.4836 319.51 76.4836H316.36C316.029 76.4836 315.76 76.2174 315.76 75.8891V68.4419C315.76 68.0522 316.16 67.7881 316.523 67.9383C316.8 68.0532 316.933 68.3679 316.815 68.6411C315.594 71.4287 313.771 73.5742 311.346 75.0776C308.78 76.669 305.703 77.4646 302.118 77.4646ZM302.683 73.3118C304.961 73.3118 306.954 72.9086 308.657 72.102C310.362 71.2953 311.734 70.1946 312.773 68.7994C313.813 67.3825 314.489 65.7911 314.799 64.0253C315.064 62.8917 315.208 61.6491 315.23 60.2976C315.245 59.3364 315.256 58.5462 315.26 57.9267C315.263 57.6056 315.605 57.3986 315.894 57.5453C316.27 57.7376 316.172 58.2953 315.751 58.348C314.481 58.5075 313.134 58.6668 311.711 58.8262C309.786 59.0442 307.882 59.2948 306.002 59.5782C304.143 59.8617 302.461 60.1995 300.957 60.5919C299.938 60.8754 298.954 61.2786 298.003 61.8018C297.05 62.3031 296.265 62.9789 295.645 63.8291C295.049 64.6793 294.749 65.7365 294.749 67.0009C294.749 68.0254 295.004 69.0174 295.513 69.9765C296.043 70.9357 296.885 71.7314 298.036 72.3636C299.209 72.9957 300.758 73.3118 302.683 73.3118Z" fill="black"/>
<path d="M328.022 76.4837C327.691 76.4837 327.423 76.2175 327.423 75.8892V41.7633C327.423 41.435 327.691 41.1688 328.022 41.1688H331.205C331.536 41.1688 331.804 41.435 331.804 41.7633V48.4911C331.804 48.8744 331.314 49.0399 331.079 48.7362C330.994 48.6259 330.971 48.4792 331.022 48.3499C331.41 47.3844 331.903 46.4948 332.501 45.6812C333.144 44.7875 333.84 44.0571 334.592 43.4904C335.522 42.6838 336.607 42.0735 337.846 41.6593C339.085 41.2233 340.336 40.9726 341.597 40.9072C342.677 40.8326 343.676 40.8858 344.594 41.067C344.863 41.12 345.048 41.3593 345.048 41.6315V44.918C345.048 45.3053 344.681 45.5889 344.296 45.5229C343.2 45.3343 342.024 45.3108 340.767 45.4523C339.218 45.6267 337.79 46.2371 336.484 47.2835C335.29 48.1991 334.393 49.3 333.797 50.5861C333.199 51.8505 332.801 53.202 332.601 54.6408C332.402 56.0577 332.302 57.4637 332.302 58.8589V75.8892C332.302 76.2175 332.034 76.4837 331.702 76.4837H328.022Z" fill="black"/>
<path d="M362.099 77.4319C357.894 77.4319 354.43 76.5382 351.709 74.7506C349.18 73.0764 347.564 70.7901 346.859 67.8921C346.782 67.5668 347.005 67.2502 347.337 67.1955L351.169 66.5662C351.475 66.5161 351.767 66.7057 351.864 66.9969C352.456 68.7616 353.611 70.1909 355.326 71.2845C357.23 72.4617 359.576 73.0502 362.364 73.0502C365.086 73.0502 367.233 72.4944 368.804 71.3826C370.374 70.249 371.16 68.7121 371.16 66.772C371.16 65.6821 370.906 64.7992 370.396 64.1234C369.91 63.4259 368.903 62.7828 367.376 62.1942C365.848 61.6056 363.57 60.9081 360.538 60.1014C357.286 59.2294 354.741 58.3575 352.904 57.4855C351.067 56.6135 349.761 55.6108 348.987 54.4772C348.212 53.3219 347.826 51.9158 347.826 50.259C347.826 48.2535 348.401 46.4986 349.551 44.9945C350.702 43.4685 352.294 42.2913 354.332 41.463C356.367 40.6128 358.734 40.1877 361.434 40.1877C364.135 40.1877 366.546 40.6237 368.671 41.4957C370.817 42.3459 372.543 43.5449 373.849 45.0926C375.036 46.4991 375.783 48.1128 376.092 49.9334C376.146 50.2437 375.929 50.5312 375.617 50.5865L371.794 51.2642C371.464 51.3228 371.153 51.1001 371.075 50.7763C370.65 48.9845 369.637 47.5477 368.04 46.466C366.292 45.2452 364.067 44.613 361.368 44.5694C358.823 44.504 356.754 44.9836 355.16 46.0082C353.568 47.011 352.771 48.3516 352.771 50.0301C352.771 50.9676 353.058 51.774 353.633 52.4499C354.209 53.1038 355.25 53.7251 356.754 54.3137C358.28 54.9023 360.449 55.5454 363.26 56.243C366.557 57.0713 369.147 57.9433 371.027 58.8589C372.909 59.7744 374.246 60.8535 375.043 62.0961C375.84 63.3386 376.239 64.8755 376.239 66.7066C376.239 70.0419 374.977 72.6687 372.455 74.5871C369.954 76.4836 366.502 77.4319 362.099 77.4319Z" fill="black"/>
<path d="M202.979 76.4838C202.697 76.4838 202.468 76.2586 202.468 75.9808V29.9003C202.468 29.6225 202.697 29.3972 202.979 29.3972H220.924C221.388 29.3972 221.908 29.4191 222.483 29.4626C223.081 29.4845 223.678 29.5499 224.276 29.6588C226.776 30.0295 228.89 30.8905 230.616 32.242C232.364 33.5718 233.681 35.2503 234.566 37.2777C235.474 39.305 235.928 41.5504 235.928 44.0137C235.928 46.4552 235.474 48.6896 234.566 50.717C233.658 52.7443 232.331 54.4338 230.583 55.7853C228.857 57.1151 226.754 57.9653 224.276 58.3358C223.678 58.4231 223.081 58.4885 222.483 58.532C221.908 58.5757 221.388 58.5974 220.924 58.5974H207.858C207.576 58.5974 207.347 58.8227 207.347 59.1005V75.9808C207.347 76.2586 207.119 76.4838 206.836 76.4838H202.979ZM207.347 53.5166C207.347 53.7944 207.576 54.0196 207.858 54.0196H220.79C221.189 54.0196 221.653 53.9979 222.185 53.9542C222.717 53.9106 223.237 53.8344 223.744 53.7253C225.383 53.3766 226.721 52.7116 227.762 51.7306C228.824 50.7497 229.609 49.5835 230.118 48.2318C230.649 46.8803 230.915 45.4743 230.915 44.0137C230.915 42.5532 230.649 41.1472 230.118 39.7955C229.609 38.4221 228.824 37.245 227.762 36.264C226.721 35.283 225.383 34.6182 223.744 34.2694C223.237 34.1604 222.717 34.095 222.185 34.0732C221.653 34.0296 221.189 34.0078 220.79 34.0078H207.858C207.576 34.0078 207.347 34.2331 207.347 34.5109V53.5166Z" fill="black"/>
</mask>
<g mask="url(#mask6_60_430)">
<path d="M202.979 76.4838C202.697 76.4838 202.468 76.2586 202.468 75.9808V29.9003C202.468 29.6225 202.697 29.3972 202.979 29.3972H220.924C221.388 29.3972 221.908 29.4191 222.483 29.4626C223.081 29.4845 223.678 29.5499 224.276 29.6588C226.776 30.0295 228.89 30.8905 230.616 32.242C232.364 33.5718 233.681 35.2503 234.566 37.2777C235.474 39.305 235.928 41.5504 235.928 44.0137C235.928 46.4552 235.474 48.6896 234.566 50.717C233.658 52.7443 232.331 54.4338 230.583 55.7853C228.857 57.1151 226.754 57.9653 224.276 58.3358C223.678 58.4231 223.081 58.4885 222.483 58.532C221.908 58.5757 221.388 58.5974 220.924 58.5974H207.858C207.576 58.5974 207.347 58.8227 207.347 59.1005V75.9808C207.347 76.2586 207.119 76.4838 206.836 76.4838H202.979ZM207.347 53.5166C207.347 53.7944 207.576 54.0196 207.858 54.0196H220.79C221.189 54.0196 221.653 53.9979 222.185 53.9542C222.717 53.9106 223.237 53.8344 223.744 53.7253C225.383 53.3766 226.721 52.7116 227.762 51.7306C228.824 50.7497 229.609 49.5835 230.118 48.2318C230.649 46.8803 230.915 45.4743 230.915 44.0137C230.915 42.5532 230.649 41.1472 230.118 39.7955C229.609 38.4221 228.824 37.245 227.762 36.264C226.721 35.283 225.383 34.6182 223.744 34.2694C223.237 34.1604 222.717 34.095 222.185 34.0732C221.653 34.0296 221.189 34.0078 220.79 34.0078H207.858C207.576 34.0078 207.347 34.2331 207.347 34.5109V53.5166Z" stroke="#0075FF" stroke-width="0.8" stroke-linejoin="round"/>
</g>
<path fill-rule="evenodd" clip-rule="evenodd" d="M-0.25121 66.8622H3.90081C4.4587 66.8622 4.9129 67.3112 4.9129 67.8694V83.1728C4.9129 83.7279 4.46175 84.1799 3.90081 84.1799H-0.25121C-0.809084 84.1799 -1.26331 83.7309 -1.26331 83.1728V67.8694C-1.26331 67.3143 -0.81213 66.8622 -0.25121 66.8622ZM9.3454 46.7507H12.5951C13.4029 46.7507 14.0553 47.403 14.0553 48.2037V66.8622C14.0553 67.666 13.3999 68.3153 12.5951 68.3153H9.3454C8.53754 68.3153 7.88518 67.6629 7.88518 66.8622V48.2037C7.88518 47.4 8.54059 46.7507 9.3454 46.7507ZM8.89421 70.7813H13.0462C13.6041 70.7813 14.0583 71.2303 14.0583 71.7884V87.9929C14.0583 88.548 13.6072 89 13.0462 89H8.89421C8.33636 89 7.88213 88.551 7.88213 87.9929V71.7884C7.88213 71.2333 8.33331 70.7813 8.89421 70.7813ZM18.0427 26.4513H22.1947C22.7526 26.4513 23.2068 26.9002 23.2068 27.4583V57.8014C23.2068 58.3565 22.7556 58.8085 22.1947 58.8085H18.0427C17.4848 58.8085 17.0306 58.3595 17.0306 57.8014V27.4583C17.0306 26.9032 17.4818 26.4513 18.0427 26.4513ZM18.0427 61.6568H22.1947C22.7526 61.6568 23.2068 62.1058 23.2068 62.6639V72.0735C23.2068 72.6286 22.7556 73.0806 22.1947 73.0806H18.0427C17.4848 73.0806 17.0306 72.6316 17.0306 72.0735V62.6639C17.0306 62.1088 17.4818 61.6568 18.0427 61.6568ZM18.4939 80.749H21.7435C22.5514 80.749 23.2038 81.4014 23.2038 82.202V87.5408C23.2038 88.3449 22.5484 88.9939 21.7435 88.9939H18.4939C17.686 88.9939 17.0337 88.3418 17.0337 87.5408V82.202C17.0337 81.3983 17.6891 80.749 18.4939 80.749ZM27.1912 12.0608H31.3431C31.9012 12.0608 32.3553 12.5098 32.3553 13.0679V34.5292C32.3553 35.0844 31.9043 35.5364 31.3431 35.5364H27.1912C26.6333 35.5364 26.1791 35.0874 26.1791 34.5292V13.0618C26.1791 12.5067 26.6303 12.0547 27.1912 12.0547V12.0608ZM27.1912 38.148H31.3462C31.9043 38.148 32.3553 38.5969 32.3553 39.1521V68.2425C32.3553 68.7976 31.9043 69.2466 31.3462 69.2466H27.1912C26.6333 69.2466 26.1821 68.7976 26.1821 68.2425V39.1521C26.1821 38.5969 26.6333 38.148 27.1912 38.148ZM36.3395 7.63204H40.4918C41.0496 7.63204 41.5037 8.08099 41.5037 8.63912V22.9507C41.5037 23.5058 41.0526 23.9578 40.4918 23.9578H36.3395C35.7818 23.9578 35.3277 23.5089 35.3277 22.9507V8.63609C35.3277 8.08099 35.7787 7.62901 36.3395 7.62901V7.63204ZM36.3395 26.4725H40.4918C41.0496 26.4725 41.5037 26.9214 41.5037 27.4796V48.0704C41.5037 48.6255 41.0526 49.0775 40.4918 49.0775H36.3395C35.7818 49.0775 35.3277 48.6286 35.3277 48.0704V27.4796C35.3277 26.9245 35.7787 26.4725 36.3395 26.4725ZM36.3395 52.0411H40.4918C41.0496 52.0411 41.5037 52.4901 41.5037 53.048V71.549C41.5037 72.1041 41.0526 72.5558 40.4918 72.5558H36.3395C35.7818 72.5558 35.3277 72.1071 35.3277 71.549V53.048C35.3277 52.4929 35.7787 52.0411 36.3395 52.0411ZM45.9331 4.04048H49.183C49.9909 4.04048 50.6432 4.69269 50.6432 5.4935V32.3633C50.6432 33.1673 49.9878 33.8163 49.183 33.8163H45.9331C45.1253 33.8163 44.473 33.1643 44.473 32.3633V5.4935C44.473 4.68963 45.1284 4.04048 45.9331 4.04048ZM45.9331 36.7861H49.183C49.9909 36.7861 50.6432 37.4381 50.6432 38.2391V44.4758C50.6432 45.2796 49.9878 45.9286 49.183 45.9286H45.9331C45.1253 45.9286 44.473 45.2765 44.473 44.4758V38.2391C44.473 37.4354 45.1284 36.7861 45.9331 36.7861ZM45.9331 48.0037H49.18C49.9878 48.0037 50.6401 48.6558 50.6401 49.4565V77.2245C50.6401 78.0282 49.9848 78.6772 49.18 78.6772H45.9331C45.1253 78.6772 44.473 78.0252 44.473 77.2245V49.4565C44.473 48.6527 45.1284 48.0037 45.9331 48.0037ZM55.0818 0.451976H58.3314C59.1392 0.451976 59.7915 1.10416 59.7915 1.90498V7.24377C59.7915 8.04762 59.1362 8.69677 58.3314 8.69677H55.0818C54.274 8.69677 53.6214 8.04459 53.6214 7.24377V1.90801C53.6214 1.10416 54.277 0.45501 55.0818 0.45501V0.451976ZM55.0818 11.2145H58.3314C59.1392 11.2145 59.7915 11.8667 59.7915 12.6675V53.8915C59.7915 54.6952 59.1362 55.3445 58.3314 55.3445H55.0818C54.274 55.3445 53.6214 54.6922 53.6214 53.8915V12.6705C53.6214 11.8667 54.277 11.2175 55.0818 11.2175V11.2145ZM55.0818 58.314H58.3314C59.1392 58.314 59.7915 58.9663 59.7915 59.767V70.9361C59.7915 71.7398 59.1362 72.3891 58.3314 72.3891H55.0818C54.274 72.3891 53.6214 71.7367 53.6214 70.9361V59.767C53.6214 58.9633 54.277 58.314 55.0818 58.314ZM55.0818 75.3619H58.3314C59.1392 75.3619 59.7915 76.0139 59.7915 76.8149V83.9493C59.7915 84.7534 59.1362 85.4024 58.3314 85.4024H55.0818C54.274 85.4024 53.6214 84.7503 53.6214 83.9493V76.8149C53.6214 76.0109 54.277 75.3619 55.0818 75.3619ZM64.2302 73.117H67.4798C68.2876 73.117 68.9402 73.7694 68.9402 74.5701V87.5378C68.9402 88.3418 68.2845 88.9908 67.4798 88.9908H64.2302C63.4223 88.9908 62.77 88.3388 62.77 87.5378V74.5701C62.77 73.7663 63.4254 73.117 64.2302 73.117ZM64.2302 28.2622H67.4798C68.2876 28.2622 68.9402 28.9144 68.9402 29.7152V61.5173C68.9402 62.3211 68.2845 62.9704 67.4798 62.9704H64.2302C63.4223 62.9704 62.77 62.318 62.77 61.5173V29.7152C62.77 28.9114 63.4254 28.2622 64.2302 28.2622ZM64.2302 0H67.4798C68.2876 0 68.9402 0.65218 68.9402 1.453V23.8365C68.9402 24.6403 68.2845 25.2895 67.4798 25.2895H64.2302C63.4223 25.2895 62.77 24.6373 62.77 23.8365V1.45603C62.77 0.65218 63.4254 0.0030334 64.2302 0.0030334V0ZM73.3785 79.8452H76.6284C77.4363 79.8452 78.0886 80.4973 78.0886 81.2983V87.535C78.0886 88.3388 77.4332 88.9878 76.6284 88.9878H73.3785C72.5707 88.9878 71.9184 88.3357 71.9184 87.535V81.2983C71.9184 80.4942 72.5737 79.8452 73.3785 79.8452ZM73.3785 0.448942H76.6284C77.4363 0.448942 78.0886 1.10113 78.0886 1.90194V39.9864C78.0886 40.7901 77.4332 41.4394 76.6284 41.4394H73.3785C72.5707 41.4394 71.9184 40.7871 71.9184 39.9864V1.90498C71.9184 1.10113 72.5737 0.451976 73.3785 0.451976V0.448942ZM73.3785 44.4089H76.6284C77.4363 44.4089 78.0886 45.0612 78.0886 45.8619V61.5173C78.0886 62.3211 77.4332 62.9704 76.6284 62.9704H73.3785C72.5707 62.9704 71.9184 62.318 71.9184 61.5173V45.8619C71.9184 45.0582 72.5737 44.4089 73.3785 44.4089ZM82.5211 2.24472H85.7707C86.5785 2.24472 87.2308 2.8969 87.2308 3.69772V14.4178C87.2308 15.2216 86.5755 15.8707 85.7707 15.8707H82.5211C81.7133 15.8707 81.061 15.2186 81.061 14.4178V3.70075C81.061 2.8969 81.7163 2.24775 82.5211 2.24775V2.24472ZM82.5211 18.8404H85.7707C86.5785 18.8404 87.2308 19.4927 87.2308 20.2935V61.5173C87.2308 62.3211 86.5755 62.9704 85.7707 62.9704H82.5211C81.7133 62.9704 81.061 62.318 81.061 61.5173V20.2965C81.061 19.4927 81.7163 18.8435 82.5211 18.8435V18.8404ZM91.6664 3.14262H94.916C95.7241 3.14262 96.3764 3.79479 96.3764 4.59561V28.3259C96.3764 29.1298 95.7211 29.7789 94.916 29.7789H91.6664C90.8586 29.7789 90.2063 29.1267 90.2063 28.3259V4.59864C90.2063 3.79479 90.8616 3.14565 91.6664 3.14565V3.14262ZM91.6664 32.7486H94.916C95.7241 32.7486 96.3764 33.4007 96.3764 34.2017V53.8976C96.3764 54.7014 95.7211 55.3503 94.916 55.3503H91.6664C90.8586 55.3503 90.2063 54.6983 90.2063 53.8976V34.2017C90.2063 33.3976 90.8616 32.7486 91.6664 32.7486ZM91.6664 58.314H94.916C95.7241 58.314 96.3764 58.9663 96.3764 59.767V68.6945C96.3764 69.4983 95.7211 70.1473 94.916 70.1473H91.6664C90.8586 70.1473 90.2063 69.4952 90.2063 68.6945V59.767C90.2063 58.9633 90.8616 58.314 91.6664 58.314ZM100.757 4.48942H104.007C104.815 4.48942 105.467 5.1416 105.467 5.94245V42.6799C105.467 43.4837 104.812 44.133 104.007 44.133H100.757C99.9493 44.133 99.2967 43.4806 99.2967 42.6799V5.94547C99.2967 5.1416 99.9523 4.49248 100.757 4.49248V4.48942ZM100.757 47.1027H104.007C104.815 47.1027 105.467 47.7548 105.467 48.5558V77.6673C105.467 78.4711 104.812 79.1201 104.007 79.1201H100.757C99.9493 79.1201 99.2967 78.468 99.2967 77.6673V48.5558C99.2967 47.7517 99.9523 47.1027 100.757 47.1027ZM109.841 3.14262H113.091C113.899 3.14262 114.551 3.79479 114.551 4.59561V20.251C114.551 21.0548 113.896 21.704 113.091 21.704H109.841C109.034 21.704 108.381 21.0518 108.381 20.251V4.59864C108.381 3.79479 109.037 3.14565 109.841 3.14565V3.14262ZM109.841 24.6737H113.091C113.899 24.6737 114.551 25.3259 114.551 26.1267V71.8401C114.551 72.6439 113.896 73.2932 113.091 73.2932H109.841C109.034 73.2932 108.381 72.6408 108.381 71.8401V26.1297C108.381 25.3259 109.037 24.6767 109.841 24.6767V24.6737ZM109.841 76.2598H113.091C113.899 76.2598 114.551 76.9119 114.551 77.7126V86.1911C114.551 86.9949 113.896 87.6442 113.091 87.6442H109.841C109.034 87.6442 108.381 86.9918 108.381 86.1911V77.7126C108.381 76.9088 109.037 76.2598 109.841 76.2598ZM118.987 73.5691H122.237C123.044 73.5691 123.697 74.2211 123.697 75.0221V87.5378C123.697 88.3418 123.041 88.9908 122.237 88.9908H118.987C118.179 88.9908 117.527 88.3388 117.527 87.5378V75.0221C117.527 74.2183 118.182 73.5691 118.987 73.5691ZM118.987 35.4422H122.237C123.044 35.4422 123.697 36.0945 123.697 36.8952V45.3765C123.697 46.1806 123.041 46.8296 122.237 46.8296H118.987C118.179 46.8296 117.527 46.1775 117.527 45.3765V36.8952C117.527 36.0915 118.182 35.4422 118.987 35.4422ZM118.987 2.69669H122.237C123.044 2.69669 123.697 3.34888 123.697 4.14969V31.0197C123.697 31.8235 123.041 32.4725 122.237 32.4725H118.987C118.179 32.4725 117.527 31.8204 117.527 31.0197V4.14969C117.527 3.34585 118.182 2.69669 118.987 2.69669ZM128.257 4.9414H131.507C132.315 4.9414 132.967 5.5936 132.967 6.39442V40.4412C132.967 41.2452 132.312 41.8942 131.507 41.8942H128.257C127.45 41.8942 126.797 41.2422 126.797 40.4412V6.39442C126.797 5.59055 127.453 4.9414 128.257 4.9414ZM128.257 80.749H131.507C132.315 80.749 132.967 81.4014 132.967 82.202V87.5408C132.967 88.3449 132.312 88.9939 131.507 88.9939H128.257C127.45 88.9939 126.797 88.3418 126.797 87.5408V82.202C126.797 81.3983 127.453 80.749 128.257 80.749ZM137.275 7.63507H140.525C141.332 7.63507 141.985 8.28724 141.985 9.08806V17.5695C141.985 18.3733 141.329 19.0224 140.525 19.0224H137.275C136.467 19.0224 135.815 18.3703 135.815 17.5695V9.08806C135.815 8.28422 136.47 7.63507 137.275 7.63507ZM137.275 21.9861H140.525C141.332 21.9861 141.985 22.6383 141.985 23.4391V39.5435C141.985 40.3473 141.329 40.9963 140.525 40.9963H137.275C136.467 40.9963 135.815 40.3442 135.815 39.5435V23.4391C135.815 22.6352 136.47 21.9861 137.275 21.9861ZM146.536 9.87371H149.786C150.594 9.87371 151.246 10.5259 151.246 11.3267V16.6655C151.246 17.4694 150.591 18.1185 149.786 18.1185H146.536C145.728 18.1185 145.076 17.4663 145.076 16.6655V11.3267C145.076 10.5229 145.731 9.87371 146.536 9.87371ZM146.536 20.6393H149.786C150.594 20.6393 151.246 21.2914 151.246 22.0923V26.9821C151.246 27.7859 150.591 28.4351 149.786 28.4351H146.536C145.728 28.4351 145.076 27.7829 145.076 26.9821V22.0923C145.076 21.2884 145.731 20.6393 146.536 20.6393ZM146.536 30.9558H149.786C150.594 30.9558 151.246 31.6082 151.246 32.4088V40.4384C151.246 41.2422 150.591 41.8912 149.786 41.8912H146.536C145.728 41.8912 145.076 41.2391 145.076 40.4384V32.4088C145.076 31.6051 145.731 30.9558 146.536 30.9558ZM155.681 12.5674H158.931C159.739 12.5674 160.391 13.2196 160.391 14.0204V41.7881C160.391 42.5918 159.736 43.2412 158.931 43.2412H155.681C154.874 43.2412 154.221 42.5891 154.221 41.7881V14.0173C154.221 13.2135 154.877 12.5644 155.681 12.5644V12.5674ZM164.769 20.6393H168.019C168.827 20.6393 169.479 21.2914 169.479 22.0923V40.8871C169.479 41.6911 168.824 42.3401 168.019 42.3401H164.769C163.961 42.3401 163.309 41.6881 163.309 40.8871V22.0923C163.309 21.2884 163.964 20.6393 164.769 20.6393ZM173.786 30.9558H177.036C177.844 30.9558 178.496 31.6082 178.496 32.4088V37.7476C178.496 38.5514 177.841 39.2007 177.036 39.2007H173.786C172.979 39.2007 172.326 38.5483 172.326 37.7476V32.4088C172.326 31.6051 172.982 30.9558 173.786 30.9558Z" fill="url(#paint0_radial_60_430)"/>
<path fill-rule="evenodd" clip-rule="evenodd" d="M-0.25121 66.8622H3.90081C4.4587 66.8622 4.9129 67.3112 4.9129 67.8694V83.1728C4.9129 83.7279 4.46175 84.1799 3.90081 84.1799H-0.25121C-0.809084 84.1799 -1.26331 83.7309 -1.26331 83.1728V67.8694C-1.26331 67.3143 -0.81213 66.8622 -0.25121 66.8622ZM9.3454 46.7507H12.5951C13.4029 46.7507 14.0553 47.403 14.0553 48.2037V66.8622C14.0553 67.666 13.3999 68.3153 12.5951 68.3153H9.3454C8.53754 68.3153 7.88518 67.6629 7.88518 66.8622V48.2037C7.88518 47.4 8.54059 46.7507 9.3454 46.7507ZM8.89421 70.7813H13.0462C13.6041 70.7813 14.0583 71.2303 14.0583 71.7884V87.9929C14.0583 88.548 13.6072 89 13.0462 89H8.89421C8.33636 89 7.88213 88.551 7.88213 87.9929V71.7884C7.88213 71.2333 8.33331 70.7813 8.89421 70.7813ZM18.0427 26.4513H22.1947C22.7526 26.4513 23.2068 26.9002 23.2068 27.4583V57.8014C23.2068 58.3565 22.7556 58.8085 22.1947 58.8085H18.0427C17.4848 58.8085 17.0306 58.3595 17.0306 57.8014V27.4583C17.0306 26.9032 17.4818 26.4513 18.0427 26.4513ZM18.0427 61.6568H22.1947C22.7526 61.6568 23.2068 62.1058 23.2068 62.6639V72.0735C23.2068 72.6286 22.7556 73.0806 22.1947 73.0806H18.0427C17.4848 73.0806 17.0306 72.6316 17.0306 72.0735V62.6639C17.0306 62.1088 17.4818 61.6568 18.0427 61.6568ZM18.4939 80.749H21.7435C22.5514 80.749 23.2038 81.4014 23.2038 82.202V87.5408C23.2038 88.3449 22.5484 88.9939 21.7435 88.9939H18.4939C17.686 88.9939 17.0337 88.3418 17.0337 87.5408V82.202C17.0337 81.3983 17.6891 80.749 18.4939 80.749ZM27.1912 12.0608H31.3431C31.9012 12.0608 32.3553 12.5098 32.3553 13.0679V34.5292C32.3553 35.0844 31.9043 35.5364 31.3431 35.5364H27.1912C26.6333 35.5364 26.1791 35.0874 26.1791 34.5292V13.0618C26.1791 12.5067 26.6303 12.0547 27.1912 12.0547V12.0608ZM27.1912 38.148H31.3462C31.9043 38.148 32.3553 38.5969 32.3553 39.1521V68.2425C32.3553 68.7976 31.9043 69.2466 31.3462 69.2466H27.1912C26.6333 69.2466 26.1821 68.7976 26.1821 68.2425V39.1521C26.1821 38.5969 26.6333 38.148 27.1912 38.148ZM36.3395 7.63204H40.4918C41.0496 7.63204 41.5037 8.08099 41.5037 8.63912V22.9507C41.5037 23.5058 41.0526 23.9578 40.4918 23.9578H36.3395C35.7818 23.9578 35.3277 23.5089 35.3277 22.9507V8.63609C35.3277 8.08099 35.7787 7.62901 36.3395 7.62901V7.63204ZM36.3395 26.4725H40.4918C41.0496 26.4725 41.5037 26.9214 41.5037 27.4796V48.0704C41.5037 48.6255 41.0526 49.0775 40.4918 49.0775H36.3395C35.7818 49.0775 35.3277 48.6286 35.3277 48.0704V27.4796C35.3277 26.9245 35.7787 26.4725 36.3395 26.4725ZM36.3395 52.0411H40.4918C41.0496 52.0411 41.5037 52.4901 41.5037 53.048V71.549C41.5037 72.1041 41.0526 72.5558 40.4918 72.5558H36.3395C35.7818 72.5558 35.3277 72.1071 35.3277 71.549V53.048C35.3277 52.4929 35.7787 52.0411 36.3395 52.0411ZM45.9331 4.04048H49.183C49.9909 4.04048 50.6432 4.69269 50.6432 5.4935V32.3633C50.6432 33.1673 49.9878 33.8163 49.183 33.8163H45.9331C45.1253 33.8163 44.473 33.1643 44.473 32.3633V5.4935C44.473 4.68963 45.1284 4.04048 45.9331 4.04048ZM45.9331 36.7861H49.183C49.9909 36.7861 50.6432 37.4381 50.6432 38.2391V44.4758C50.6432 45.2796 49.9878 45.9286 49.183 45.9286H45.9331C45.1253 45.9286 44.473 45.2765 44.473 44.4758V38.2391C44.473 37.4354 45.1284 36.7861 45.9331 36.7861ZM45.9331 48.0037H49.18C49.9878 48.0037 50.6401 48.6558 50.6401 49.4565V77.2245C50.6401 78.0282 49.9848 78.6772 49.18 78.6772H45.9331C45.1253 78.6772 44.473 78.0252 44.473 77.2245V49.4565C44.473 48.6527 45.1284 48.0037 45.9331 48.0037ZM55.0818 0.451976H58.3314C59.1392 0.451976 59.7915 1.10416 59.7915 1.90498V7.24377C59.7915 8.04762 59.1362 8.69677 58.3314 8.69677H55.0818C54.274 8.69677 53.6214 8.04459 53.6214 7.24377V1.90801C53.6214 1.10416 54.277 0.45501 55.0818 0.45501V0.451976ZM55.0818 11.2145H58.3314C59.1392 11.2145 59.7915 11.8667 59.7915 12.6675V53.8915C59.7915 54.6952 59.1362 55.3445 58.3314 55.3445H55.0818C54.274 55.3445 53.6214 54.6922 53.6214 53.8915V12.6705C53.6214 11.8667 54.277 11.2175 55.0818 11.2175V11.2145ZM55.0818 58.314H58.3314C59.1392 58.314 59.7915 58.9663 59.7915 59.767V70.9361C59.7915 71.7398 59.1362 72.3891 58.3314 72.3891H55.0818C54.274 72.3891 53.6214 71.7367 53.6214 70.9361V59.767C53.6214 58.9633 54.277 58.314 55.0818 58.314ZM55.0818 75.3619H58.3314C59.1392 75.3619 59.7915 76.0139 59.7915 76.8149V83.9493C59.7915 84.7534 59.1362 85.4024 58.3314 85.4024H55.0818C54.274 85.4024 53.6214 84.7503 53.6214 83.9493V76.8149C53.6214 76.0109 54.277 75.3619 55.0818 75.3619ZM64.2302 73.117H67.4798C68.2876 73.117 68.9402 73.7694 68.9402 74.5701V87.5378C68.9402 88.3418 68.2845 88.9908 67.4798 88.9908H64.2302C63.4223 88.9908 62.77 88.3388 62.77 87.5378V74.5701C62.77 73.7663 63.4254 73.117 64.2302 73.117ZM64.2302 28.2622H67.4798C68.2876 28.2622 68.9402 28.9144 68.9402 29.7152V61.5173C68.9402 62.3211 68.2845 62.9704 67.4798 62.9704H64.2302C63.4223 62.9704 62.77 62.318 62.77 61.5173V29.7152C62.77 28.9114 63.4254 28.2622 64.2302 28.2622ZM64.2302 0H67.4798C68.2876 0 68.9402 0.65218 68.9402 1.453V23.8365C68.9402 24.6403 68.2845 25.2895 67.4798 25.2895H64.2302C63.4223 25.2895 62.77 24.6373 62.77 23.8365V1.45603C62.77 0.65218 63.4254 0.0030334 64.2302 0.0030334V0ZM73.3785 79.8452H76.6284C77.4363 79.8452 78.0886 80.4973 78.0886 81.2983V87.535C78.0886 88.3388 77.4332 88.9878 76.6284 88.9878H73.3785C72.5707 88.9878 71.9184 88.3357 71.9184 87.535V81.2983C71.9184 80.4942 72.5737 79.8452 73.3785 79.8452ZM73.3785 0.448942H76.6284C77.4363 0.448942 78.0886 1.10113 78.0886 1.90194V39.9864C78.0886 40.7901 77.4332 41.4394 76.6284 41.4394H73.3785C72.5707 41.4394 71.9184 40.7871 71.9184 39.9864V1.90498C71.9184 1.10113 72.5737 0.451976 73.3785 0.451976V0.448942ZM73.3785 44.4089H76.6284C77.4363 44.4089 78.0886 45.0612 78.0886 45.8619V61.5173C78.0886 62.3211 77.4332 62.9704 76.6284 62.9704H73.3785C72.5707 62.9704 71.9184 62.318 71.9184 61.5173V45.8619C71.9184 45.0582 72.5737 44.4089 73.3785 44.4089ZM82.5211 2.24472H85.7707C86.5785 2.24472 87.2308 2.8969 87.2308 3.69772V14.4178C87.2308 15.2216 86.5755 15.8707 85.7707 15.8707H82.5211C81.7133 15.8707 81.061 15.2186 81.061 14.4178V3.70075C81.061 2.8969 81.7163 2.24775 82.5211 2.24775V2.24472ZM82.5211 18.8404H85.7707C86.5785 18.8404 87.2308 19.4927 87.2308 20.2935V61.5173C87.2308 62.3211 86.5755 62.9704 85.7707 62.9704H82.5211C81.7133 62.9704 81.061 62.318 81.061 61.5173V20.2965C81.061 19.4927 81.7163 18.8435 82.5211 18.8435V18.8404ZM91.6664 3.14262H94.916C95.7241 3.14262 96.3764 3.79479 96.3764 4.59561V28.3259C96.3764 29.1298 95.7211 29.7789 94.916 29.7789H91.6664C90.8586 29.7789 90.2063 29.1267 90.2063 28.3259V4.59864C90.2063 3.79479 90.8616 3.14565 91.6664 3.14565V3.14262ZM91.6664 32.7486H94.916C95.7241 32.7486 96.3764 33.4007 96.3764 34.2017V53.8976C96.3764 54.7014 95.7211 55.3503 94.916 55.3503H91.6664C90.8586 55.3503 90.2063 54.6983 90.2063 53.8976V34.2017C90.2063 33.3976 90.8616 32.7486 91.6664 32.7486ZM91.6664 58.314H94.916C95.7241 58.314 96.3764 58.9663 96.3764 59.767V68.6945C96.3764 69.4983 95.7211 70.1473 94.916 70.1473H91.6664C90.8586 70.1473 90.2063 69.4952 90.2063 68.6945V59.767C90.2063 58.9633 90.8616 58.314 91.6664 58.314ZM100.757 4.48942H104.007C104.815 4.48942 105.467 5.1416 105.467 5.94245V42.6799C105.467 43.4837 104.812 44.133 104.007 44.133H100.757C99.9493 44.133 99.2967 43.4806 99.2967 42.6799V5.94547C99.2967 5.1416 99.9523 4.49248 100.757 4.49248V4.48942ZM100.757 47.1027H104.007C104.815 47.1027 105.467 47.7548 105.467 48.5558V77.6673C105.467 78.4711 104.812 79.1201 104.007 79.1201H100.757C99.9493 79.1201 99.2967 78.468 99.2967 77.6673V48.5558C99.2967 47.7517 99.9523 47.1027 100.757 47.1027ZM109.841 3.14262H113.091C113.899 3.14262 114.551 3.79479 114.551 4.59561V20.251C114.551 21.0548 113.896 21.704 113.091 21.704H109.841C109.034 21.704 108.381 21.0518 108.381 20.251V4.59864C108.381 3.79479 109.037 3.14565 109.841 3.14565V3.14262ZM109.841 24.6737H113.091C113.899 24.6737 114.551 25.3259 114.551 26.1267V71.8401C114.551 72.6439 113.896 73.2932 113.091 73.2932H109.841C109.034 73.2932 108.381 72.6408 108.381 71.8401V26.1297C108.381 25.3259 109.037 24.6767 109.841 24.6767V24.6737ZM109.841 76.2598H113.091C113.899 76.2598 114.551 76.9119 114.551 77.7126V86.1911C114.551 86.9949 113.896 87.6442 113.091 87.6442H109.841C109.034 87.6442 108.381 86.9918 108.381 86.1911V77.7126C108.381 76.9088 109.037 76.2598 109.841 76.2598ZM118.987 73.5691H122.237C123.044 73.5691 123.697 74.2211 123.697 75.0221V87.5378C123.697 88.3418 123.041 88.9908 122.237 88.9908H118.987C118.179 88.9908 117.527 88.3388 117.527 87.5378V75.0221C117.527 74.2183 118.182 73.5691 118.987 73.5691ZM118.987 35.4422H122.237C123.044 35.4422 123.697 36.0945 123.697 36.8952V45.3765C123.697 46.1806 123.041 46.8296 122.237 46.8296H118.987C118.179 46.8296 117.527 46.1775 117.527 45.3765V36.8952C117.527 36.0915 118.182 35.4422 118.987 35.4422ZM118.987 2.69669H122.237C123.044 2.69669 123.697 3.34888 123.697 4.14969V31.0197C123.697 31.8235 123.041 32.4725 122.237 32.4725H118.987C118.179 32.4725 117.527 31.8204 117.527 31.0197V4.14969C117.527 3.34585 118.182 2.69669 118.987 2.69669ZM128.257 4.9414H131.507C132.315 4.9414 132.967 5.5936 132.967 6.39442V40.4412C132.967 41.2452 132.312 41.8942 131.507 41.8942H128.257C127.45 41.8942 126.797 41.2422 126.797 40.4412V6.39442C126.797 5.59055 127.453 4.9414 128.257 4.9414ZM128.257 80.749H131.507C132.315 80.749 132.967 81.4014 132.967 82.202V87.5408C132.967 88.3449 132.312 88.9939 131.507 88.9939H128.257C127.45 88.9939 126.797 88.3418 126.797 87.5408V82.202C126.797 81.3983 127.453 80.749 128.257 80.749ZM137.275 7.63507H140.525C141.332 7.63507 141.985 8.28724 141.985 9.08806V17.5695C141.985 18.3733 141.329 19.0224 140.525 19.0224H137.275C136.467 19.0224 135.815 18.3703 135.815 17.5695V9.08806C135.815 8.28422 136.47 7.63507 137.275 7.63507ZM137.275 21.9861H140.525C141.332 21.9861 141.985 22.6383 141.985 23.4391V39.5435C141.985 40.3473 141.329 40.9963 140.525 40.9963H137.275C136.467 40.9963 135.815 40.3442 135.815 39.5435V23.4391C135.815 22.6352 136.47 21.9861 137.275 21.9861ZM146.536 9.87371H149.786C150.594 9.87371 151.246 10.5259 151.246 11.3267V16.6655C151.246 17.4694 150.591 18.1185 149.786 18.1185H146.536C145.728 18.1185 145.076 17.4663 145.076 16.6655V11.3267C145.076 10.5229 145.731 9.87371 146.536 9.87371ZM146.536 20.6393H149.786C150.594 20.6393 151.246 21.2914 151.246 22.0923V26.9821C151.246 27.7859 150.591 28.4351 149.786 28.4351H146.536C145.728 28.4351 145.076 27.7829 145.076 26.9821V22.0923C145.076 21.2884 145.731 20.6393 146.536 20.6393ZM146.536 30.9558H149.786C150.594 30.9558 151.246 31.6082 151.246 32.4088V40.4384C151.246 41.2422 150.591 41.8912 149.786 41.8912H146.536C145.728 41.8912 145.076 41.2391 145.076 40.4384V32.4088C145.076 31.6051 145.731 30.9558 146.536 30.9558ZM155.681 12.5674H158.931C159.739 12.5674 160.391 13.2196 160.391 14.0204V41.7881C160.391 42.5918 159.736 43.2412 158.931 43.2412H155.681C154.874 43.2412 154.221 42.5891 154.221 41.7881V14.0173C154.221 13.2135 154.877 12.5644 155.681 12.5644V12.5674ZM164.769 20.6393H168.019C168.827 20.6393 169.479 21.2914 169.479 22.0923V40.8871C169.479 41.6911 168.824 42.3401 168.019 42.3401H164.769C163.961 42.3401 163.309 41.6881 163.309 40.8871V22.0923C163.309 21.2884 163.964 20.6393 164.769 20.6393ZM173.786 30.9558H177.036C177.844 30.9558 178.496 31.6082 178.496 32.4088V37.7476C178.496 38.5514 177.841 39.2007 177.036 39.2007H173.786C172.979 39.2007 172.326 38.5483 172.326 37.7476V32.4088C172.326 31.6051 172.982 30.9558 173.786 30.9558Z" fill="url(#paint1_radial_60_430)"/>
</g>
<defs>
<radialGradient id="paint0_radial_60_430" cx="0" cy="0" r="1" gradientUnits="userSpaceOnUse" gradientTransform="translate(153.044 19.5739) rotate(157.203) scale(181.938 369.293)">
<stop stop-color="#0075FF"/>
<stop offset="1" stop-color="#0075FF" stop-opacity="0"/>
</radialGradient>
<radialGradient id="paint1_radial_60_430" cx="0" cy="0" r="1" gradientUnits="userSpaceOnUse" gradientTransform="translate(153.044 19.5739) rotate(157.203) scale(181.938 369.293)">
<stop stop-color="#0075FF"/>
<stop offset="1" stop-color="#0075FF" stop-opacity="0"/>
</radialGradient>
<clipPath id="clip0_60_430">
<rect width="379" height="89" fill="white"/>
</clipPath>
</defs>
</svg>
